<?xml version="1.0" encoding="utf-8"?>
<!-- Generator: Adobe Illustrator 15.0.0, SVG Export Plug-In . SVG Version: 6.00 Build 0)  -->
<!DOCTYPE svg PUBLIC "-//W3C//DTD SVG 1.1//EN" "http://www.w3.org/Graphics/SVG/1.1/DTD/svg11.dtd">
<svg version="1.1" xmlns="http://www.w3.org/2000/svg" xmlns:xlink="http://www.w3.org/1999/xlink" x="0px" y="0px"
	 width="248.39px" height="370.629px" viewBox="0 0 248.39 370.629" style="enable-background:new 0 0 248.39 370.629;"
	 xml:space="preserve">
<style type="text/css">
<![CDATA[
	.st0{fill:#FFFFFF;}
	.st1{fill:#9AC099;}
	.st2{fill-rule:evenodd;clip-rule:evenodd;fill:#9AC099;}
]]>
</style>
<g id="Layer_1">
</g>
<g id="Layer_2">
	<path class="st0" d="M248.39,360.811c0,5.422-3.503,9.818-7.823,9.818H7.824c-4.32,0-7.824-4.396-7.824-9.818V9.818
		C0,4.396,3.503,0,7.824,0h232.743c4.32,0,7.823,4.396,7.823,9.818V360.811z"/>
	<g>
	</g>
	<g>
		<g>
			<path class="st1" d="M145.652,151.457c-0.859,3.337-3.323,11.585-7.39,24.748h14.896c-3.832-12.328-5.988-19.3-6.471-20.917
				C146.206,153.673,145.859,152.396,145.652,151.457z"/>
		</g>
		<g>
			<path class="st1" d="M88.079,30.632c-0.378-1.267-0.648-2.269-0.812-3.004c-0.674,2.616-2.605,9.083-5.793,19.402h11.679
				C90.148,37.365,88.458,31.899,88.079,30.632z"/>
		</g>
		<g>
			<path class="st1" d="M99.119,215.077c-3.302,0-5.665,1.781-7.089,5.34c-1.424,3.56-2.135,9.414-2.135,17.563
				c0,8.15,0.705,13.989,2.113,17.517c1.409,3.529,3.779,5.295,7.112,5.295c3.271,0,5.634-1.787,7.089-5.362
				c1.454-3.575,2.18-9.392,2.18-17.45c0-8.149-0.735-14.003-2.204-17.563C104.715,216.858,102.36,215.077,99.119,215.077z"/>
		</g>
		<g>
			<path class="st1" d="M173.152,40.21c1.45-1.154,2.177-2.835,2.177-5.042c0-2.228-0.609-3.873-1.825-4.935
				c-1.217-1.063-3.121-1.594-5.716-1.594h-4.322v13.303h3.126C169.515,41.942,171.701,41.365,173.152,40.21z"/>
		</g>
		<g>
			<path class="st1" d="M133.735,40.21c1.45-1.154,2.176-2.835,2.176-5.042c0-2.228-0.608-3.873-1.824-4.935
				c-1.216-1.063-3.122-1.594-5.716-1.594h-4.322v13.303h3.125C130.097,41.942,132.283,41.365,133.735,40.21z"/>
		</g>
		<g>
			<path class="st1" d="M204.96,166.274c1.824-1.277,2.736-3.284,2.736-6.021c0-2.71-0.933-4.639-2.794-5.786
				c-1.864-1.146-1.864-1.146-1.864-1.146c-3.737-0.315-7.622-0.574-8.633-0.574c-1.012,0-1.839,3.475-1.839,7.721
				s0.88,7.721,1.955,7.721s4.951-0.287,8.613-0.638C203.135,167.552,203.135,167.552,204.96,166.274z"/>
		</g>
		<g>
			<path class="st1" d="M206.36,238.797c-2.848,0-5.278,0.926-7.293,2.773c-2.014,1.849-3.021,3.999-3.021,6.454
				c0,3.605,0.947,6.649,2.841,9.132c1.891,2.484,4.293,3.726,7.201,3.726c2.999,0,5.301-1.008,6.908-3.022
				c1.604-2.015,2.407-4.885,2.407-8.61c0-3.242-0.75-5.794-2.249-7.658C211.654,239.729,209.39,238.797,206.36,238.797z"/>
		</g>
		<g>
			<path class="st1" d="M14.219,10.775c-1.559,0-2.834,1.275-2.834,2.834v264.306c0,1.559,1.275,2.834,2.834,2.834h218.288
				c1.56,0,2.835-1.275,2.835-2.834V13.609c0-1.559-1.275-2.834-2.835-2.834H14.219z M195.206,20.854c1.56,0,3.408,1.14,4.109,2.532
				l6.737,13.388c0.701,1.393,1.851,1.395,2.556,0.003l6.787-13.395c0.705-1.391,2.557-2.529,4.116-2.529h4.568
				c1.56,0,2.227,1.121,1.482,2.491L213.4,45.735c-0.744,1.37-1.353,3.766-1.353,5.325v11.771c0,1.559-1.275,2.834-2.835,2.834
				h-3.77c-1.56,0-2.835-1.275-2.835-2.834V51.367c0-1.559-0.604-3.958-1.341-5.332l-12.185-22.684
				c-0.737-1.374-0.065-2.497,1.494-2.497H195.206z M153.963,23.688c0-1.559,1.275-2.834,2.835-2.834h8.646
				c1.56,0,4.102,0.155,5.648,0.344c0,0,6.755,0.826,9.585,3.165c2.829,2.34,4.246,5.829,4.246,10.468
				c0,4.823-1.508,8.511-4.522,11.064c-3.015,2.555-10.046,3.467-10.046,3.467c-1.547,0.201-3.729,0.365-4.85,0.365
				c-1.122,0-2.039,1.275-2.039,2.834v10.27c0,1.559-1.275,2.834-2.835,2.834h-3.833c-1.56,0-2.835-1.275-2.835-2.834V23.688z
				 M161.463,105.458c0.355,1.518,0.902,4.009,1.215,5.537l2.138,11.477c0.25,1.539,0.627,1.534,0.836-0.011
				c0,0,0.204-1.502,0.844-5.049c0.637-3.546,1.122-5.507,1.122-5.507c0.374-1.513,1.002-3.986,1.395-5.495l8.056-30.976
				c0.393-1.509,1.989-2.743,3.549-2.743h7.375c1.56,0,3.156,1.234,3.549,2.743l8.055,30.976c0.393,1.509,0.996,3.987,1.341,5.508
				c0,0,0.309,1.361,0.933,4.715c0.622,3.354,0.998,5.835,0.998,5.835c0.232,1.542,0.611,1.541,0.841-0.001
				c0,0,0.356-2.398,1.009-5.856c0.652-3.457,1.148-5.629,1.148-5.629c0.348-1.52,0.922-4.005,1.275-5.524l6.995-30.006
				c0.354-1.519,1.919-2.761,3.479-2.761h7.908c1.56,0,2.521,1.236,2.136,2.747l-15.163,59.595
				c-0.385,1.511-1.975,2.747-3.534,2.747h-10.047c-1.56,0-3.153-1.235-3.543-2.745l-7.397-28.702
				c-0.39-1.51-1.002-3.986-1.361-5.503c0,0-0.23-0.973-1.017-4.788c-0.787-3.813-0.944-4.875-0.944-4.875
				c-0.228-1.542-0.603-1.542-0.832,0c0,0-0.205,1.375-0.917,4.92c-0.712,3.547-1.008,4.83-1.008,4.83
				c-0.352,1.519-0.956,3.997-1.345,5.507l-7.359,28.612c-0.389,1.51-1.981,2.745-3.541,2.745h-10.001
				c-1.56,0-3.15-1.236-3.536-2.747l-15.205-59.596c-0.386-1.511,0.574-2.747,2.134-2.747h7.909c1.56,0,3.126,1.242,3.481,2.76
				L161.463,105.458z M114.547,23.688c0-1.559,1.275-2.834,2.834-2.834h8.645c1.559,0,4.101,0.155,5.648,0.344
				c0,0,6.755,0.826,9.585,3.165c2.83,2.34,4.245,5.829,4.245,10.468c0,4.823-1.507,8.511-4.521,11.064
				c-3.014,2.555-10.047,3.467-10.047,3.467c-1.547,0.201-3.729,0.365-4.85,0.365s-2.039,1.275-2.039,2.834v10.27
				c0,1.559-1.275,2.834-2.834,2.834h-3.833c-1.559,0-2.834-1.275-2.834-2.834V23.688z M130.336,98.29
				c1.56,0,2.835,1.275,2.835,2.834v5.639c0,1.559-1.275,2.834-2.835,2.834h-16.368c-1.559,0-2.834,1.275-2.834,2.834v11.115
				c0,1.559,1.275,2.834,2.834,2.834h18.016c1.56,0,2.835,1.275,2.835,2.834v5.728c0,1.559-1.275,2.834-2.835,2.834h-31.816
				c-1.559,0-2.834-1.275-2.834-2.834v-59.42c0-1.559,1.275-2.834,2.834-2.834h31.816c1.56,0,2.835,1.275,2.835,2.834v5.639
				c0,1.559-1.275,2.834-2.835,2.834h-18.016c-1.559,0-2.834,1.275-2.834,2.834v8.623c0,1.559,1.275,2.834,2.834,2.834H130.336z
				 M109,165.297c1.559,0,2.834,1.275,2.834,2.834v4.261c0,1.559-1.275,2.834-2.834,2.834H95.317c-1.559,0-2.834,1.275-2.834,2.834
				v9.07c0,1.559,1.275,2.834,2.834,2.834h15.13c1.559,0,2.834,1.275,2.834,2.834v4.338c0,1.559-1.275,2.834-2.834,2.834H83.198
				c-1.559,0-2.834-1.275-2.834-2.834v-51.487c0-1.559,1.275-2.834,2.834-2.834h27.249c1.559,0,2.834,1.275,2.834,2.834v4.261
				c0,1.559-1.275,2.834-2.834,2.834h-15.13c-1.559,0-2.834,1.275-2.834,2.834v6.881c0,1.559,1.275,2.834,2.834,2.834H109z
				 M80.473,23.344c0.517-1.471,2.215-2.674,3.774-2.674h5.948c1.559,0,3.259,1.203,3.778,2.673l13.99,39.649
				c0.519,1.47-0.332,2.673-1.891,2.673h-4.568c-1.559,0-3.206-1.22-3.661-2.711l-1.597-5.244C95.792,56.22,94.145,55,92.586,55
				H81.917c-1.559,0-3.206,1.22-3.661,2.711l-1.597,5.244c-0.455,1.491-2.102,2.711-3.661,2.711h-4.568
				c-1.559,0-2.412-1.204-1.895-2.674L80.473,23.344z M23.206,23.688c0-1.559,1.275-2.834,2.834-2.834h3.833
				c1.559,0,2.834,1.275,2.834,2.834v11.894c0,1.559,1.275,2.834,2.834,2.834h12.078c1.559,0,2.834-1.275,2.834-2.834V23.688
				c0-1.559,1.275-2.834,2.834-2.834h3.803c1.559,0,2.834,1.275,2.834,2.834v39.143c0,1.559-1.275,2.834-2.834,2.834H53.29
				c-1.559,0-2.834-1.275-2.834-2.834V49.159c0-1.559-1.275-2.834-2.834-2.834H35.542c-1.559,0-2.834,1.275-2.834,2.834v13.672
				c0,1.559-1.275,2.834-2.834,2.834H26.04c-1.559,0-2.834-1.275-2.834-2.834V23.688z M23.206,75.525
				c0-1.559,1.275-2.834,2.834-2.834h11.739c1.559,0,3.474,1.104,4.256,2.452l25.426,43.846c0.782,1.349,1.492,2.452,1.578,2.452
				c0.086,0,0.097-1.274,0.025-2.832l-0.471-12.276c-0.037-1.559-0.066-4.109-0.066-5.668v-25.14c0-1.559,1.275-2.834,2.834-2.834
				h6.752c1.559,0,2.834,1.275,2.834,2.834v59.42c0,1.559-1.275,2.834-2.834,2.834H66.242c-1.559,0-3.47-1.106-4.248-2.458
				L36.506,90.998c-0.777-1.352-1.503-2.458-1.613-2.458s-0.128,1.273-0.04,2.83l0.604,12.945c0.045,1.559,0.081,4.109,0.081,5.668
				v24.961c0,1.559-1.275,2.834-2.834,2.834H26.04c-1.559,0-2.834-1.275-2.834-2.834V75.525z M69.627,268.363
				c0,1.559-1.275,2.834-2.834,2.834H26.02c-1.559,0-2.834-1.275-2.834-2.834v-4.101c0-1.559,0.897-3.741,1.994-4.85l12.69-12.827
				c1.097-1.108,2.874-2.938,3.949-4.067c0,0,6.208-6.516,7.723-8.469c1.515-1.955,2.605-3.764,3.272-5.43
				c0.666-1.667,1-3.394,1-5.181c0-2.666-0.735-4.649-2.204-5.952c-1.47-1.303-3.431-1.955-5.885-1.955
				c-2.575,0-5.074,0.591-7.498,1.772c-2.424,1.182-5.319,3.347-5.319,3.347c-1.249,0.934-3.093,0.723-4.099-0.469l-3.977-4.71
				c-1.006-1.191-0.83-2.96,0.39-3.93c0,0,3.764-2.992,5.916-4.145c2.151-1.151,4.499-2.036,7.043-2.658
				c2.544-0.621,5.392-0.932,8.543-0.932c4.15,0,7.816,0.758,10.997,2.271c3.181,1.516,5.65,3.636,7.408,6.362
				c1.756,2.728,2.635,5.847,2.635,9.362c0,3.06-0.538,5.93-1.613,8.61c-1.075,2.681-2.742,5.43-4.999,8.248
				c-2.256,2.818-9.877,10.086-9.877,10.086c-1.128,1.076-2.98,2.831-4.115,3.9l-4.415,4.156c-1.135,1.069-2.064,2.086-2.064,2.262
				s1.275,0.318,2.834,0.318h23.277c1.559,0,2.834,1.275,2.834,2.834V268.363z M55.562,175.238c-0.744,1.37-1.353,3.766-1.353,5.325
				v16.575c0,1.559-1.275,2.834-2.834,2.834h-6.373c-1.559,0-2.834-1.275-2.834-2.834v-16.184c0-1.559-0.604-3.958-1.341-5.332
				l-16.279-30.309c-0.738-1.374-0.066-2.497,1.493-2.497h7.468c1.559,0,3.408,1.14,4.109,2.532l9.296,18.471
				c0.701,1.393,1.851,1.395,2.556,0.003l9.362-18.478c0.705-1.391,2.557-2.529,4.116-2.529h7.389c1.559,0,2.226,1.121,1.481,2.491
				L55.562,175.238z M116.682,263.745c-3.803,5.575-9.657,8.362-17.563,8.362c-7.665,0-13.444-2.877-17.336-8.634
				c-3.894-5.756-5.839-14.253-5.839-25.493c0-11.724,1.893-20.365,5.68-25.924c3.787-5.559,9.618-8.338,17.495-8.338
				c7.664,0,13.458,2.908,17.382,8.724c3.921,5.817,5.884,14.331,5.884,25.539C122.385,249.584,120.482,258.171,116.682,263.745z
				 M164.146,268.363c0,1.559-1.275,2.834-2.835,2.834h-8.371c-1.56,0-2.835-1.275-2.835-2.834v-32.774
				c0-1.559,0.027-4.11,0.061-5.668l0.015-0.648c0.033-1.559,0.103-4.109,0.153-5.667l0.041-1.242
				c0.051-1.558-0.797-1.964-1.883-0.901c-1.087,1.062-3.88,3.457-5.096,4.434l-3.214,2.583c-1.216,0.977-3.008,0.78-3.982-0.436
				l-3.227-4.027c-0.975-1.216-0.774-3.006,0.445-3.978l16.968-13.51c1.22-0.971,3.493-1.766,5.053-1.766h5.872
				c1.56,0,2.835,1.275,2.835,2.834V268.363z M163.03,199.973c-1.56,0-3.207-1.22-3.661-2.711l-2.491-8.181
				c-0.454-1.491-2.102-2.711-3.661-2.711H138.05c-1.56,0-3.207,1.22-3.661,2.711l-2.493,8.181
				c-0.454,1.491-2.102,2.711-3.661,2.711h-7.388c-1.559,0-2.412-1.204-1.895-2.674l18.293-52.042
				c0.518-1.471,2.216-2.674,3.775-2.674h9.147c1.56,0,3.26,1.203,3.778,2.673l18.364,52.044c0.519,1.471-0.332,2.673-1.892,2.673
				H163.03z M180.447,145.651c0-1.559,1.275-2.834,2.835-2.834h10.984c1.56,0,4.104,0.133,5.654,0.295c0,0,10.693,1.12,14.422,3.947
				c3.728,2.828,5.59,7.122,5.59,12.881c0,3.362-0.926,6.354-2.775,8.973c-1.852,2.62-5.414,4.718-5.414,4.718
				c-1.344,0.792-1.731,2.498-0.862,3.792l13.634,20.207c0.878,1.289,0.32,2.343-1.239,2.343h-7.778
				c-1.56,0-3.509-1.083-4.332-2.407l-10.65-17.118c-0.823-1.324-2.772-2.407-4.332-2.407h-0.781c-1.56,0-2.835,1.275-2.835,2.834
				v16.263c0,1.559-1.275,2.834-2.835,2.834h-6.449c-1.56,0-2.835-1.275-2.835-2.834V145.651z M222.993,265.904
				c-4,4.134-9.544,6.204-16.633,6.204c-4.907,0-9.187-1.137-12.838-3.409c-3.649-2.272-6.467-5.589-8.451-9.952
				c-1.983-4.362-2.976-9.618-2.976-15.768c0-13.148,2.778-22.933,8.338-29.355c5.559-6.422,13.883-9.633,24.97-9.633
				c3.787,0,6.096,0.307,6.096,0.307c1.545,0.206,2.81,1.649,2.81,3.208v5.556c0,1.559-1.258,2.621-2.795,2.361
				c0,0-2.565-0.435-5.201-0.435c-4.817,0-8.748,0.728-11.792,2.181c-3.045,1.454-5.324,3.605-6.839,6.452
				c-1.515,2.848-2.329,9.321-2.329,9.321c-0.194,1.547-0.221,2.812-0.058,2.812s1.202-0.897,2.311-1.995
				c0,0,5.786-5.73,12.392-5.73c5.936,0,10.586,1.863,13.949,5.589c3.363,3.726,5.044,8.876,5.044,15.45
				C228.99,256.157,226.991,261.77,222.993,265.904z"/>
		</g>
	</g>
	<g>
		<path class="st0" d="M-1151.37-223.364h-11.929l-19.256-33.487h-0.272c0.383,5.915,0.575,10.133,0.575,12.656v20.831h-8.387
			v-44.266h11.838l19.226,33.154h0.212c-0.303-5.753-0.454-9.82-0.454-12.202v-20.952h8.447V-223.364z"/>
		<path class="st0" d="M-1114.734-223.364h-25.493v-44.266h25.493v7.69h-16.107v9.719h14.987v7.69h-14.987v11.415h16.107V-223.364z"
			/>
		<path class="st0" d="M-1062.384-223.364h-10.688l-5.995-23.253c-0.222-0.828-0.601-2.538-1.135-5.132
			c-0.535-2.593-0.844-4.334-0.924-5.223c-0.121,1.09-0.424,2.841-0.908,5.253c-0.484,2.412-0.858,4.133-1.12,5.163l-5.965,23.192
			h-10.657l-11.294-44.266h9.234l5.662,24.161c0.989,4.461,1.705,8.327,2.149,11.597c0.121-1.151,0.398-2.932,0.833-5.344
			c0.434-2.412,0.843-4.284,1.227-5.616l6.449-24.797h8.871l6.449,24.797c0.282,1.11,0.636,2.806,1.06,5.086
			c0.424,2.281,0.746,4.239,0.969,5.874c0.201-1.575,0.524-3.538,0.969-5.889c0.443-2.351,0.848-4.254,1.211-5.708l5.632-24.161
			h9.234L-1062.384-223.364z"/>
	</g>
	<g>
		<path class="st0" d="M-1220.385-281.711h-14.527v-29.665h-27.22v29.665h-14.574v-68.733h14.574v26.938h27.22v-26.938h14.527
			V-281.711z"/>
		<path class="st0" d="M-1160.96-281.711l-4.983-16.36h-25.058l-4.983,16.36h-15.702l24.259-69.015h17.818l24.353,69.015H-1160.96z
			 M-1169.423-310.295c-4.607-14.825-7.201-23.208-7.781-25.152c-0.58-1.943-0.995-3.479-1.246-4.607
			c-1.034,4.012-3.996,13.932-8.886,29.759H-1169.423z"/>
		<path class="st0" d="M-1089.124-329.006c0,7.397-2.312,13.054-6.935,16.972c-4.623,3.918-11.197,5.876-19.722,5.876h-6.253v24.447
			h-14.574v-68.733h21.955c8.337,0,14.676,1.794,19.017,5.383C-1091.295-341.472-1089.124-336.121-1089.124-329.006z
			 M-1122.033-318.099h4.795c4.481,0,7.835-0.885,10.061-2.656c2.226-1.77,3.339-4.349,3.339-7.733c0-3.416-0.934-5.939-2.798-7.569
			c-1.865-1.629-4.788-2.445-8.768-2.445h-6.629V-318.099z"/>
		<path class="st0" d="M-1028.666-329.006c0,7.397-2.312,13.054-6.935,16.972c-4.623,3.918-11.197,5.876-19.722,5.876h-6.253v24.447
			h-14.574v-68.733h21.955c8.337,0,14.676,1.794,19.017,5.383C-1030.837-341.472-1028.666-336.121-1028.666-329.006z
			 M-1061.575-318.099h4.795c4.481,0,7.835-0.885,10.061-2.656c2.226-1.77,3.339-4.349,3.339-7.733c0-3.416-0.934-5.939-2.798-7.569
			c-1.865-1.629-4.788-2.445-8.768-2.445h-6.629V-318.099z"/>
		<path class="st0" d="M-994.3-322.142l14.339-28.302h15.703l-22.802,41.982v26.75h-14.479v-26.28l-22.802-42.453h15.796
			L-994.3-322.142z"/>
	</g>
	<g>
		<path class="st0" d="M-1663.004-8.54l9.235-18.227h10.113l-14.685,27.038v17.228h-9.326V0.573l-14.685-27.34h10.173
			L-1663.004-8.54z"/>
		<path class="st0" d="M-1612.592,17.499h-25.494v-44.266h25.494v7.69h-16.108v9.719h14.987v7.69h-14.987V9.748h16.108V17.499z"/>
		<path class="st0" d="M-1576.259,17.499l-3.209-10.537h-16.138l-3.209,10.537h-10.113l15.623-44.447h11.475l15.684,44.447
			H-1576.259z M-1581.708-0.91c-2.967-9.547-4.638-14.947-5.011-16.199c-0.374-1.251-0.641-2.24-0.802-2.967
			c-0.666,2.584-2.574,8.972-5.723,19.166H-1581.708z"/>
		<path class="st0" d="M-1551.189,0.513v16.986h-9.386v-44.266h12.898c6.015,0,10.466,1.095,13.353,3.285
			c2.886,2.19,4.33,5.516,4.33,9.976c0,2.604-0.717,4.92-2.15,6.949c-1.433,2.029-3.462,3.618-6.085,4.769
			c6.661,9.951,11,16.38,13.019,19.287h-10.416l-10.566-16.986H-1551.189z M-1551.189-7.117h3.028c2.967,0,5.157-0.494,6.57-1.483
			c1.413-0.989,2.119-2.543,2.119-4.663c0-2.099-0.722-3.592-2.165-4.481c-1.443-0.888-3.679-1.332-6.707-1.332h-2.846V-7.117z"/>
	</g>
	<path class="st2" d="M111.256,347.455c-0.227-0.179-0.161-0.601-0.035-0.853c1.155-2.319,2.292-4.692,3.831-6.776
		c0.19-0.254,0.957,0.191,0.831,0.478c-1.064,2.426-2.59,4.618-4.024,6.835C111.735,347.328,111.423,347.609,111.256,347.455
		L111.256,347.455z M111.176,345.443c1.165-1.946,3.406-3.667,3.33-5.936c-0.047-1.387-2.467-2.872-3.613-2.08
		c-1.225,0.856-0.331,3.066,0.164,4.477c0.188,0.54,1.589,0.006,1.61,0.575c0.018,0.523-1.081-0.132-1.593,0.019
		c-0.138,0.044-0.123,0.391,0.018,0.438c0.444,0.134,1.376-0.473,1.391-0.008c0.026,0.66-2.042-0.369-1.342,1.528
		c0.043,0.114,0.372-0.085,0.372,0.037c0.002,0.125-0.307-0.079-0.366,0.036L111.176,345.443L111.176,345.443z M116.432,340.622
		c-2.045,1.091-2.58,3.868-3.551,5.967c-0.169,0.369,0.745-0.318,1.064-0.563c0.05-0.038-0.149-0.148-0.093-0.179
		c0.064-0.031,0.064,0.185,0.128,0.161c0.359-0.117,0.85-0.181,0.999-0.532c0.165-0.392-0.634-1.057-0.253-1.259
		c0.356-0.188,0.295,0.81,0.608,1.068c0.108,0.1,0.414-0.06,0.391-0.201c-0.102-0.462-1.12-1.021-0.699-1.241
		c0.454-0.245,0.667,1.096,1.167,0.995c1.447-0.314,3.84-0.612,3.923-2.09C120.196,341.33,117.686,339.958,116.432,340.622
		L116.432,340.622z M124.877,333.87L124.877,333.87c0.314,0.226,0.547,0.682,0.933,0.679c0.822,0.003,1.263-1.122-0.172-0.815
		C125.386,333.788,125.132,333.827,124.877,333.87L124.877,333.87z M135.945,327.388L135.945,327.388
		c-1.964,2.311-0.07,1.474,0.198,1.012C136.312,328.102,136.01,327.728,135.945,327.388L135.945,327.388z M135.011,316.042
		L135.011,316.042c1.014,2.852,1.236,0.793,0.97,0.331C135.805,316.078,135.331,316.151,135.011,316.042L135.011,316.042z
		 M124.711,311.178L124.711,311.178c2.981,0.543,1.309-0.676,0.777-0.678C125.143,310.497,124.972,310.95,124.711,311.178
		L124.711,311.178z M115.354,317.654L115.354,317.654c1.955-2.303,0.063-1.462-0.196-1.006
		C114.981,316.949,115.283,317.32,115.354,317.654L115.354,317.654z M116.285,329.004c-0.102-0.058-0.543-1.747-0.85-1.476
		c-0.287,0.259-0.315,0.813-0.123,1.146C115.485,328.969,115.958,328.901,116.285,329.004L116.285,329.004z M96.854,322.521
		L96.854,322.521c0.242-0.151,0.444-0.433,0.722-0.451c2.596-0.156,5.21-0.359,7.789-0.067c0.316,0.031,0.316,0.919,0,0.953
		c-2.625,0.292-5.285,0.066-7.926-0.069C97.208,322.877,97.047,322.648,96.854,322.521L96.854,322.521z M98.563,321.454
		c2.269,0.031,4.878,1.115,6.801-0.087c1.178-0.738,1.253-3.569,0-4.167c-1.353-0.636-2.823,1.243-3.803,2.374
		c-0.371,0.438,0.795,1.384,0.313,1.683c-0.451,0.283-0.436-0.993-0.812-1.364c-0.108-0.1-0.404,0.088-0.372,0.237
		c0.108,0.443,1.096,0.952,0.707,1.198c-0.564,0.351-0.707-1.954-1.993-0.397c-0.082,0.093,0.251,0.275,0.146,0.341
		c-0.102,0.062-0.087-0.306-0.205-0.305L98.563,321.454L98.563,321.454z M105.361,323.593c-1.961-1.227-4.635-0.306-6.941-0.091
		c-0.398,0.035,0.649,0.482,1.017,0.637c0.064,0.026,0.059-0.205,0.114-0.162c0.059,0.034-0.128,0.136-0.079,0.182
		c0.281,0.253,0.583,0.653,0.959,0.603c0.423-0.059,0.599-1.073,0.964-0.851c0.342,0.226-0.541,0.661-0.622,1.066
		c-0.023,0.142,0.269,0.326,0.371,0.232c0.354-0.316,0.331-1.479,0.728-1.228c0.438,0.27-0.62,1.127-0.278,1.505
		c0.997,1.101,2.444,3.027,3.771,2.36C106.626,327.21,106.563,324.346,105.361,323.593L105.361,323.593z M111.25,297.589
		L111.25,297.589c0.252,0.137,0.6,0.169,0.76,0.397c1.429,2.169,2.914,4.331,3.946,6.711c0.132,0.289-0.637,0.738-0.828,0.475
		c-1.567-2.127-2.698-4.544-3.904-6.897C111.121,298.07,111.242,297.816,111.25,297.589L111.25,297.589z M113.033,298.536
		c1.107,1.978,1.473,4.784,3.477,5.843c1.222,0.652,3.721-0.695,3.604-2.082c-0.126-1.49-2.497-1.824-3.96-2.098
		c-0.562-0.106-0.798,1.376-1.301,1.107c-0.464-0.254,0.655-0.879,0.778-1.389c0.035-0.144-0.278-0.304-0.384-0.208
		c-0.343,0.318-0.28,1.43-0.692,1.214c-0.584-0.308,1.345-1.586-0.649-1.921c-0.123-0.027-0.111,0.357-0.219,0.297
		c-0.111-0.061,0.219-0.227,0.152-0.334L113.033,298.536L113.033,298.536z M114.585,305.49c0.079-2.312-2.066-4.166-3.402-6.054
		c-0.231-0.325-0.094,0.8-0.041,1.199c0.006,0.066,0.205-0.049,0.205,0.016c-0.003,0.067-0.19-0.044-0.208,0.023
		c-0.072,0.366-0.263,0.832-0.032,1.127c0.254,0.347,1.222-0.017,1.213,0.414c-0.017,0.409-0.848-0.14-1.231-0.004
		c-0.143,0.048-0.152,0.39-0.017,0.439c0.453,0.143,1.444-0.458,1.427,0.018c-0.021,0.507-1.289,0.022-1.443,0.507
		c-0.457,1.412-1.401,3.634-0.158,4.439C112.083,308.394,114.53,306.909,114.585,305.49L114.585,305.49z M140.043,297.589
		L140.043,297.589c0.011,0.28,0.154,0.604,0.034,0.853c-1.162,2.327-2.3,4.693-3.84,6.783c-0.187,0.252-0.952-0.19-0.827-0.483
		c1.061-2.425,2.587-4.609,4.024-6.83C139.567,297.715,139.841,297.694,140.043,297.589L140.043,297.589z M140.113,299.604
		c-1.16,1.946-3.402,3.668-3.329,5.933c0.052,1.392,2.473,2.879,3.615,2.085c1.227-0.854,0.329-3.069-0.162-4.484
		c-0.188-0.535-1.592,0-1.612-0.563c-0.015-0.534,1.085,0.123,1.593-0.025c0.137-0.044,0.122-0.393-0.009-0.439
		c-0.451-0.132-1.385,0.468-1.402,0.009c-0.021-0.661,2.045,0.374,1.341-1.526c-0.044-0.117-0.368,0.087-0.371-0.037
		c0-0.123,0.308,0.075,0.371-0.035L140.113,299.604L140.113,299.604z M134.86,304.424c2.049-1.087,2.581-3.86,3.552-5.975
		c0.169-0.358-0.743,0.323-1.056,0.571c-0.059,0.041,0.14,0.153,0.082,0.181c-0.06,0.032-0.06-0.181-0.119-0.163
		c-0.359,0.117-0.856,0.18-1.002,0.529c-0.165,0.394,0.633,1.056,0.253,1.257c-0.359,0.192-0.301-0.801-0.614-1.06
		c-0.107-0.099-0.418,0.058-0.382,0.197c0.096,0.467,1.112,1.026,0.699,1.246c-0.454,0.239-0.67-1.101-1.171-0.995
		c-1.446,0.313-3.84,0.607-3.925,2.083C131.102,303.712,133.609,305.093,134.86,304.424L134.86,304.424z M154.441,322.525
		L154.441,322.525c-0.242,0.146-0.443,0.436-0.728,0.45c-2.59,0.161-5.204,0.359-7.789,0.07c-0.315-0.036-0.312-0.921,0-0.953
		c2.628-0.291,5.289-0.064,7.935,0.062C154.085,322.168,154.246,322.4,154.441,322.525L154.441,322.525z M152.727,323.593
		c-2.27-0.025-4.875-1.112-6.799,0.089c-1.177,0.735-1.253,3.572,0.003,4.16c1.348,0.643,2.829-1.242,3.799-2.377
		c0.372-0.429-0.791-1.376-0.312-1.673c0.455-0.286,0.433,0.992,0.817,1.364c0.102,0.098,0.404-0.094,0.369-0.237
		c-0.111-0.448-1.1-0.955-0.708-1.198c0.561-0.351,0.704,1.955,1.996,0.394c0.079-0.093-0.254-0.271-0.154-0.339
		c0.105-0.062,0.09,0.304,0.213,0.304L152.727,323.593L152.727,323.593z M145.931,321.456c1.958,1.228,4.639,0.299,6.939,0.091
		c0.398-0.035-0.646-0.482-1.012-0.637c-0.065-0.026-0.065,0.203-0.12,0.163c-0.056-0.035,0.138-0.146,0.081-0.181
		c-0.274-0.257-0.581-0.656-0.955-0.604c-0.424,0.052-0.6,1.075-0.968,0.85c-0.339-0.223,0.544-0.663,0.62-1.063
		c0.026-0.145-0.26-0.334-0.371-0.234c-0.348,0.316-0.324,1.474-0.724,1.225c-0.434-0.274,0.615-1.124,0.276-1.506
		c-0.993-1.095-2.446-3.023-3.768-2.358C144.665,317.839,144.729,320.702,145.931,321.456L145.931,321.456z M140.046,347.455
		c-0.258-0.142-0.597-0.156-0.761-0.4c-1.432-2.161-2.913-4.333-3.95-6.705c-0.127-0.291,0.639-0.733,0.826-0.476
		c1.572,2.124,2.703,4.54,3.904,6.896C140.17,346.977,140.049,347.228,140.046,347.455L140.046,347.455z M138.261,346.514
		c-1.104-1.983-1.475-4.783-3.473-5.848c-1.23-0.646-3.721,0.699-3.607,2.081c0.121,1.495,2.491,1.829,3.958,2.108
		c0.56,0.103,0.798-1.379,1.3-1.112c0.468,0.248-0.652,0.874-0.777,1.389c-0.037,0.14,0.281,0.304,0.383,0.204
		c0.34-0.318,0.281-1.427,0.696-1.216c0.584,0.312-1.35,1.586,0.649,1.929c0.119,0.018,0.11-0.357,0.219-0.301
		c0.11,0.058-0.219,0.23-0.152,0.33L138.261,346.514L138.261,346.514z M136.713,339.556c-0.081,2.314,2.058,4.167,3.391,6.056
		c0.233,0.323,0.1-0.801,0.05-1.199c-0.015-0.067-0.21,0.052-0.208-0.014c0.004-0.067,0.193,0.039,0.208-0.023
		c0.07-0.369,0.267-0.836,0.035-1.135c-0.257-0.336-1.222,0.017-1.21-0.409c0.015-0.405,0.845,0.141,1.225,0.009
		c0.141-0.053,0.155-0.396,0.018-0.44c-0.453-0.15-1.438,0.454-1.426-0.017c0.02-0.511,1.292-0.031,1.442-0.513
		c0.457-1.407,1.398-3.63,0.156-4.44C139.212,336.652,136.766,338.135,136.713,339.556L136.713,339.556z M124.89,355.066
		L124.89,355.066c0.208-0.101,0.625-0.075,0.622-0.309c-0.076-3.667-0.564-7.318-0.83-10.98c-0.012-0.129,0.053-2.856-0.31-1.621
		c-0.158,0.561-1.408,4.824-1.35,5.041C123.65,349.819,124.273,352.443,124.89,355.066L124.89,355.066z M124.516,340.869
		c-0.9,1.904-2.035,3.69-3.168,5.464c-0.047,0.075-0.211,0-0.267-0.074c-0.388-0.553,1.153-1.769,1.322-2.068
		c0.058-0.109-0.424,0.097-0.375-0.015c0.708-1.525,1.417-3.074,2.429-4.42C124.672,339.461,124.672,340.533,124.516,340.869
		L124.516,340.869z M122.902,337.392c-3.735-3.586-4.437-1.42-4.156-0.665c0.704,1.883,2.955,3.089,3.238,5.084
		c0.157,1.032-1.576,1.417-2.178,2.279c-0.106,0.155,0.433,0.146,0.57,0.021c1.192-1.064,3.589-3.388,3.697-5.091
		c0.021-0.287-0.663,0.075-0.839-0.15C122.946,338.457,123.271,337.74,122.902,337.392L122.902,337.392z M119.001,335.005
		c-0.635,1.882-1.397,0.947-0.227-0.141C118.843,334.8,119.036,334.913,119.001,335.005L119.001,335.005z M126.543,355.069
		c-0.204-0.102-0.62-0.078-0.62-0.307c0.071-3.671,0.565-7.325,0.829-10.987c0.016-0.22-0.054-2.537,0.335-1.23
		c0.465,1.596,1.361,3.146,1.287,4.807C128.265,349.991,127.16,352.495,126.543,355.069L126.543,355.069L126.543,355.069z
		 M130.34,346.659c-0.035,0.071-0.187,0.132-0.234,0.065c-1.131-1.811-2.294-3.613-3.203-5.541
		c-0.157-0.337-0.164-1.401,0.062-1.106c0.952,1.235,1.555,2.706,2.253,4.105c0.028,0.054-0.213-0.048-0.188,0.008
		C129.066,344.253,130.708,345.955,130.34,346.659L130.34,346.659z M130.729,344.124c0.236,0.183,1.04,0.221,0.895-0.036
		c-0.508-0.919-2.312-1.239-2.178-2.283c0.252-1.913,2.476-3.058,3.115-4.884c0.292-0.823-0.506-3.063-4.313,0.638
		c-0.392,0.387-0.093,1.119-0.363,1.599c-0.099,0.179-0.645-0.07-0.598,0.129C127.643,341.058,129.353,343.047,130.729,344.124
		L130.729,344.124z M132.955,336.312c-0.876-0.583-0.795-1.78-0.295-1.443C133.452,335.385,133.323,336.555,132.955,336.312
		L132.955,336.312z M97.079,338.144L97.079,338.144c0.2,0.125,0.383,0.502,0.579,0.383c3.148-1.894,6.062-4.153,9.11-6.214
		c0.099-0.072,2.496-1.386,1.243-1.078l-5.039,1.354C101.004,334.441,99.049,336.286,97.079,338.144L97.079,338.144z
		 M109.198,330.712c-2.098,0.175-4.217,0.084-6.315-0.01c-0.093-0.001-0.11-0.181-0.072-0.266c0.286-0.614,2.106,0.116,2.451,0.111
		c0.123-0.003-0.301-0.321-0.172-0.333c1.666-0.15,3.369-0.31,5.035-0.105C110.496,330.152,109.566,330.686,109.198,330.712
		L109.198,330.712z M111.403,327.582c-0.12,0.496-0.91,0.57-1.113,1.03c-0.118,0.259,0.546,0.673,0.289,0.801
		c-1.538,0.755-4.743-0.16-6.256-0.653c-0.185-0.06-0.453-0.522-0.264-0.513c1.043,0.095,2.236,1.401,3.063,0.748
		c1.575-1.241,1.496-3.793,2.776-5.349C110.409,323.027,112.638,322.557,111.403,327.582L111.403,327.582z M111.516,323.01
		c0.091-0.018,0.093-0.241,0.012-0.271C110,322.28,109.575,323.396,111.516,323.01L111.516,323.01z M97.912,339.574
		c-0.015-0.228-0.242-0.577-0.046-0.688c3.215-1.777,6.625-3.177,9.927-4.778c0.202-0.094,2.169-1.312,1.233-0.325
		c-1.146,1.197-2.046,2.75-3.519,3.515C103.165,338.523,100.446,338.813,97.912,339.574L97.912,339.574L97.912,339.574z
		 M107.088,338.66c0.792-0.026,1.456-2.312,1.487-2.366c0.033-0.056,0.064,0.204,0.104,0.147c0.853-1.3,1.832-2.559,2.422-4
		c0.151-0.345-0.778,0.192-0.982,0.494c-1.222,1.757-2.201,3.664-3.2,5.556C106.884,338.559,107.009,338.66,107.088,338.66
		L107.088,338.66z M109.485,337.727c0.239-1.73,1.108-4.213,2.464-5.41c0.151-0.128,0.204,0.463,0.411,0.463
		c0.55-0.01,1.041-0.629,1.567-0.487c5.103,1.447,3.571,3.264,2.704,3.423c-1.897,0.356-4.001-0.996-5.784-0.256
		c-0.973,0.404-0.346,2.122-0.889,3.027C109.81,338.736,109.444,338.021,109.485,337.727L109.485,337.727z M117.364,335.745
		c0.065-1.053,1.14-1.574,1.102-0.973C118.407,335.715,117.338,336.19,117.364,335.745L117.364,335.745z M153.454,339.452
		L153.454,339.452c0.014-0.228,0.245-0.583,0.041-0.692c-3.213-1.777-6.623-3.173-9.926-4.775c-0.119-0.056-2.445-1.47-1.555-0.541
		c0.424,0.439,3.44,3.609,3.688,3.688C148.28,337.903,150.871,338.678,153.454,339.452L153.454,339.452z M140.969,332.669
		c-0.211-0.3-1.138-0.837-0.99-0.498c0.654,1.55,1.642,2.937,2.609,4.312c0.07,0.098,0.138-0.421,0.199-0.315
		c0.175,0.295,0.459,2.23,1.13,2.18c0.097-0.009,0.24-0.114,0.199-0.198C143.146,336.279,142.167,334.406,140.969,332.669
		L140.969,332.669z M137.148,332.334c0.486-0.146,0.951,0.497,1.453,0.445c0.281-0.031,0.31-0.811,0.543-0.647
		c1.423,0.947,2.231,4.186,2.562,5.748c0.044,0.181-0.226,0.655-0.305,0.479c-0.447-0.95,0.092-2.632-0.886-3.023
		c-1.862-0.749-4.036,0.595-6.017,0.268C133.692,335.467,132.198,333.769,137.148,332.334L137.148,332.334z M133.131,334.519
		c0.923,1.045,0.573,1.486,0.263,1.131C132.792,334.97,132.88,334.232,133.131,334.519L133.131,334.519z M154.283,338.016
		c-0.195,0.128-0.383,0.508-0.581,0.387c-3.148-1.896-6.059-4.149-9.094-6.214c-0.194-0.122-2.226-1.223-0.897-0.897
		c1.606,0.392,3.406,0.394,4.804,1.28C150.569,333.889,153.729,337.696,154.283,338.016L154.283,338.016z M148.897,330.527
		c0.044,0.068,0.02,0.228-0.062,0.234c-2.13,0.081-4.276,0.182-6.403,0.008c-0.368-0.036-1.297-0.558-0.929-0.609
		c1.549-0.212,3.13,0.01,4.682,0.102c0.063,0.004-0.143,0.158-0.085,0.163C146.177,330.425,148.474,329.855,148.897,330.527
		L148.897,330.527z M146.89,328.924c-1.616,0.654-4.193,1.141-5.903,0.562c-0.196-0.063,0.292-0.408,0.188-0.584
		c-0.284-0.467-1.072-0.587-1.204-1.119c-1.307-5.131,1.032-4.718,1.61-4.051c1.253,1.47,1.134,3.969,2.67,5.139
		c0.834,0.639,2.009-0.765,3.058-0.747C147.612,328.128,147.167,328.812,146.89,328.924L146.89,328.924z M141.237,323.088
		c0.395-0.201-0.546-0.894-1.399-0.47C139.304,322.882,140.293,323.552,141.237,323.088L141.237,323.088z M154.211,306.905
		c-0.202-0.118-0.374-0.505-0.576-0.382c-3.145,1.887-6.064,4.149-9.101,6.213c-0.108,0.072-2.504,1.383-1.248,1.075l5.035-1.352
		C150.286,310.604,152.244,308.76,154.211,306.905L154.211,306.905z M142.091,314.335c2.1-0.172,4.217-0.084,6.321,0.004
		c0.094,0.006,0.115,0.186,0.071,0.273c-0.291,0.612-2.107-0.12-2.456-0.111c-0.118,0.006,0.301,0.314,0.177,0.332
		c-1.67,0.147-3.374,0.311-5.04,0.109C140.79,314.901,141.728,314.362,142.091,314.335L142.091,314.335z M139.887,317.468
		c0.127-0.495,0.913-0.571,1.12-1.029c0.113-0.256-0.55-0.675-0.293-0.805c1.535-0.758,4.741,0.157,6.258,0.659
		c0.181,0.055,0.452,0.52,0.266,0.502c-1.049-0.091-2.238-1.392-3.061-0.745c-1.58,1.245-1.501,3.795-2.783,5.352
		C140.881,322.028,138.657,322.47,139.887,317.468L139.887,317.468z M139.773,322.034c-0.088,0.021-0.094,0.244-0.009,0.271
		C141.291,322.775,141.727,321.646,139.773,322.034L139.773,322.034z M153.384,305.47c0.014,0.231,0.24,0.586,0.04,0.692
		c-3.211,1.777-6.624,3.177-9.927,4.779c-0.198,0.098-2.166,1.309-1.225,0.321c1.143-1.198,2.046-2.753,3.509-3.517
		C148.127,306.525,150.849,306.229,153.384,305.47L153.384,305.47L153.384,305.47z M144.204,306.392
		c-0.786,0.022-1.452,2.311-1.49,2.366c-0.032,0.056-0.062-0.205-0.097-0.148c-0.854,1.299-1.835,2.553-2.429,3.995
		c-0.14,0.345,0.777-0.189,0.991-0.497c1.214-1.755,2.191-3.659,3.193-5.548C144.412,306.491,144.29,306.386,144.204,306.392
		L144.204,306.392z M141.813,307.323c-0.242,1.733-1.115,4.209-2.464,5.4c-0.155,0.137-0.21-0.461-0.419-0.457
		c-0.543,0.01-1.039,0.633-1.57,0.489c-5.098-1.443-3.565-3.259-2.698-3.421c1.9-0.357,3.998,0.996,5.787,0.252
		c0.967-0.402,0.338-2.123,0.882-3.023C141.48,306.308,141.852,307.031,141.813,307.323L141.813,307.323z M133.929,309.305
		c0.029-0.447-1.046,0.03-1.104,0.977C132.789,310.877,133.867,310.351,133.929,309.305L133.929,309.305z M126.403,289.977
		L126.403,289.977c-0.204,0.106-0.628,0.083-0.622,0.313c0.072,3.667,0.566,7.32,0.829,10.982c0.015,0.13-0.05,2.86,0.311,1.62
		l1.35-5.04C127.646,295.23,127.022,292.599,126.403,289.977L126.403,289.977z M126.778,304.178
		c0.899-1.902,2.035-3.684,3.166-5.462c0.051-0.075,0.215-0.005,0.271,0.074c0.38,0.561-1.16,1.769-1.322,2.065
		c-0.064,0.111,0.422-0.093,0.374,0.019c-0.708,1.526-1.417,3.074-2.432,4.421C126.62,305.586,126.622,304.516,126.778,304.178
		L126.778,304.178z M128.393,307.663c3.716,3.573,4.437,1.426,4.151,0.663c-0.703-1.883-2.952-3.098-3.232-5.086
		c-0.162-1.039,1.572-1.421,2.174-2.28c0.108-0.154-0.432-0.149-0.572-0.023c-1.192,1.066-3.587,3.386-3.695,5.092
		c-0.017,0.283,0.673-0.083,0.837,0.15C128.35,306.589,128.025,307.308,128.393,307.663L128.393,307.663z M132.292,310.044
		c0.637-1.879,1.394-0.95,0.228,0.141C132.453,310.242,132.255,310.132,132.292,310.044L132.292,310.044z M124.742,289.976
		c0.211,0.105,0.63,0.084,0.627,0.311c-0.067,3.67-0.564,7.323-0.828,10.985c-0.021,0.222,0.047,2.533-0.336,1.226
		c-0.464-1.586-1.359-3.146-1.289-4.803C123.028,295.055,124.138,292.55,124.742,289.976L124.742,289.976L124.742,289.976z
		 M120.953,298.386c0.031-0.07,0.189-0.132,0.234-0.063c1.137,1.805,2.291,3.615,3.206,5.541c0.158,0.332,0.161,1.399-0.064,1.105
		c-0.953-1.235-1.551-2.71-2.253-4.101c-0.023-0.059,0.214,0.043,0.184-0.009C122.227,300.807,120.575,299.084,120.953,298.386
		L120.953,298.386z M120.567,300.925c-0.239-0.185-1.044-0.224-0.9,0.035c0.506,0.92,2.312,1.237,2.178,2.28
		c-0.255,1.918-2.469,3.06-3.116,4.884c-0.292,0.834,0.515,3.06,4.317-0.638c0.392-0.38,0.093-1.117,0.359-1.596
		c0.105-0.183,0.649,0.069,0.605-0.129C123.654,303.985,121.944,302.002,120.567,300.925L120.567,300.925z M118.337,308.735
		c0.88,0.578,0.798,1.782,0.299,1.452C117.837,309.664,117.969,308.49,118.337,308.735L118.337,308.735z M97.836,305.596
		L97.836,305.596c-0.012,0.231-0.245,0.584-0.038,0.695c3.212,1.773,6.62,3.172,9.925,4.775c0.125,0.051,2.455,1.468,1.561,0.535
		c-0.418-0.432-3.461-3.613-3.688-3.688C103.009,307.143,100.422,306.369,97.836,305.596L97.836,305.596z M110.33,312.376
		c0.205,0.304,1.134,0.845,0.99,0.5c-0.656-1.548-1.645-2.941-2.612-4.314c-0.076-0.098-0.141,0.426-0.202,0.316
		c-0.181-0.292-0.452-2.23-1.131-2.178c-0.096,0.013-0.239,0.114-0.199,0.198C108.149,308.763,109.126,310.643,110.33,312.376
		L110.33,312.376z M114.147,312.718c-0.488,0.143-0.951-0.499-1.452-0.451c-0.281,0.025-0.31,0.809-0.548,0.652
		c-1.423-0.946-2.235-4.191-2.557-5.748c-0.044-0.185,0.222-0.657,0.301-0.481c0.447,0.951-0.087,2.636,0.883,3.023
		c1.868,0.753,4.036-0.595,6.026-0.265C117.595,309.577,119.114,311.275,114.147,312.718L114.147,312.718z M118.161,310.532
		c-1.312-1.487-0.122-1.681,0.235-0.128C118.416,310.492,118.22,310.599,118.161,310.532L118.161,310.532z M97.012,307.028
		c0.189-0.127,0.38-0.503,0.579-0.381c3.145,1.896,6.058,4.148,9.095,6.213c0.187,0.118,2.221,1.216,0.899,0.897
		c-1.61-0.395-3.41-0.395-4.801-1.285C100.545,311.056,98.935,308.843,97.012,307.028L97.012,307.028L97.012,307.028z
		 M102.392,314.524c-0.042-0.071-0.017-0.233,0.064-0.237c2.134-0.08,4.276-0.184,6.404-0.008c0.365,0.028,1.298,0.558,0.926,0.606
		c-1.546,0.211-3.121-0.011-4.682-0.102c-0.058-0.004,0.144-0.155,0.088-0.159C105.121,314.626,102.813,315.188,102.392,314.524
		L102.392,314.524z M104.403,316.126c1.616-0.652,4.193-1.144,5.909-0.568c0.193,0.067-0.292,0.41-0.188,0.586
		c0.278,0.475,1.064,0.585,1.202,1.113c1.298,5.144-1.032,4.727-1.613,4.059c-1.251-1.471-1.131-3.968-2.668-5.138
		c-0.835-0.64-2.005,0.759-3.066,0.741C103.684,316.912,104.125,316.234,104.403,316.126L104.403,316.126z M110.052,321.959
		c-0.392,0.197,0.552,0.896,1.399,0.47C111.989,322.164,110.999,321.487,110.052,321.959L110.052,321.959z M119.752,339.438
		c-0.669-0.389-1.616-0.032-2.174-0.749c-0.272-0.356,0.266-1.299,0.692-1.16C119.03,337.795,119.254,338.801,119.752,339.438
		L119.752,339.438z M116.964,338.474c-0.073,0.083-1.789-0.326-0.053-1.932C116.973,336.489,118.846,336.259,116.964,338.474
		L116.964,338.474z M115.602,337.556c-0.757-0.085-2.18-0.719-1.815-1.379c0.396-0.707,1.78-0.208,2.429,0.286
		C116.539,336.717,116.014,337.608,115.602,337.556L115.602,337.556z M137.351,336.085c-0.581,0.504-0.979,1.4-1.739,1.503
		c-0.441,0.062-0.993-0.879-0.651-1.175C135.404,336.032,137.274,336.039,137.351,336.085L137.351,336.085z M134.264,336.512
		c0.39,0.427,0.661,0.959,0.854,1.51c0.057,0.162-0.77,0.558-0.88,0.474c-0.42-0.33-0.7-0.865-0.814-1.395
		C133.367,336.851,134.029,336.259,134.264,336.512L134.264,336.512z M133.002,337.664c0.384-0.164,0.893,0.743,0.64,1.079
		c-0.453,0.604-1.712,1.526-2.104,0.875C131.123,338.921,132.25,337.979,133.002,337.664L133.002,337.664z M108.054,325.879
		c-0.15-0.755-0.728-1.546-0.439-2.26c0.169-0.415,1.256-0.417,1.341,0.016C109.11,324.429,108.351,325.131,108.054,325.879
		L108.054,325.879L108.054,325.879z M109.222,322.99c0.339-0.068,0.152-0.944-0.088-1.023c-2.25-0.701-1.756,0.99-1.648,1.012
		C108.059,323.075,108.658,323.109,109.222,322.99L109.222,322.99z M108.857,321.322c-0.06,0.418-1.094,0.402-1.252,0.014
		c-0.304-0.691-0.468-2.245,0.29-2.253C108.705,319.075,108.962,320.519,108.857,321.322L108.857,321.322z M143.246,319.164
		c0.139,0.759,0.722,1.552,0.43,2.262c-0.167,0.419-1.254,0.422-1.342-0.017C142.182,320.62,142.938,319.918,143.246,319.164
		L143.246,319.164L143.246,319.164z M142.071,322.059c-0.337,0.066-0.153,0.943,0.088,1.02c0.513,0.163,1.119,0.188,1.618-0.016
		c0.12-0.048,0.193-0.957,0.026-0.992C143.236,321.971,142.634,321.936,142.071,322.059L142.071,322.059z M142.433,323.727
		c0.059-0.414,1.093-0.404,1.253-0.013c0.309,0.69,0.47,2.245-0.292,2.252C142.584,325.975,142.331,324.53,142.433,323.727
		L142.433,323.727z M131.535,305.61L131.535,305.61c0.728,0.252,1.706,0.144,2.176,0.749c0.275,0.354-0.265,1.304-0.688,1.159
		C132.266,307.253,132.032,306.246,131.535,305.61L131.535,305.61z M134.332,306.575c0.11-0.128,0.865,0.389,0.842,0.523
		c-0.071,0.528-0.392,1.034-0.789,1.401C134.325,308.557,132.447,308.793,134.332,306.575L134.332,306.575z M135.691,307.492
		c-0.413-0.053-0.94,0.84-0.608,1.09c0.643,0.493,2.021,1,2.417,0.29C137.874,308.212,136.451,307.58,135.691,307.492
		L135.691,307.492z M113.951,308.96c0.572-0.5,0.973-1.395,1.732-1.505c0.445-0.06,0.991,0.882,0.652,1.175
		C115.729,309.154,114.74,308.855,113.951,308.96L113.951,308.96L113.951,308.96z M117.025,308.534
		c-0.38-0.431-0.655-0.965-0.845-1.509c-0.064-0.159,0.769-0.556,0.874-0.475c0.424,0.337,0.699,0.869,0.812,1.397
		C117.925,308.19,117.265,308.79,117.025,308.534L117.025,308.534z M118.291,307.385c-0.385,0.157-0.889-0.745-0.64-1.078
		c0.456-0.611,1.712-1.53,2.102-0.881C120.167,306.128,119.045,307.074,118.291,307.385L118.291,307.385z M125.647,337.88
		L125.647,337.88C126.05,337.573,125.141,337.638,125.647,337.88L125.647,337.88z M126.503,337.24
		c0.178,0.302,0.383-1.184,0.169-1.522C126.485,335.407,126.113,336.604,126.503,337.24L126.503,337.24z M124.483,335.556
		c-0.114,0.408,0.044,1.611,0.059,1.557C124.89,335.891,124.547,335.337,124.483,335.556L124.483,335.556z M112.35,330.2
		L112.35,330.2C112.813,330.401,112.313,329.632,112.35,330.2L112.35,330.2z M113.331,330.621c-0.171,0.31,1.21-0.259,1.409-0.62
		C114.915,329.688,113.685,329.97,113.331,330.621L113.331,330.621z M113.775,328.035c-0.441,0.11-1.386,0.844-1.312,0.819
		C113.714,328.541,113.98,327.982,113.775,328.035L113.775,328.035z M112.35,314.842L112.35,314.842
		C112.813,314.536,112.414,315.347,112.35,314.842L112.35,314.842z M113.717,314.276c-0.044-0.025-0.179-0.039-0.149,0
		c0.901,0.92,1.517,0.876,1.374,0.724C114.611,314.661,114.134,314.501,113.717,314.276L113.717,314.276z M113.711,316.815
		c-0.405,0.012-1.584-0.906-1.236-0.909C113.226,315.888,114.071,316.809,113.711,316.815L113.711,316.815z M125.647,307.169
		L125.647,307.169C125.247,307.475,126.144,307.422,125.647,307.169L125.647,307.169z M124.793,307.812
		c-0.181-0.304-0.377,1.171-0.172,1.523C124.808,309.641,125.178,308.445,124.793,307.812L124.793,307.812z M126.807,309.489
		c0.122-0.439-0.039-1.623-0.055-1.553C126.409,309.178,126.752,309.691,126.807,309.489L126.807,309.489z M138.94,314.845
		C138.502,314.591,138.981,315.448,138.94,314.845L138.94,314.845z M137.965,314.431c0.172-0.312-1.212,0.252-1.409,0.607
		C136.387,315.354,137.608,315.078,137.965,314.431L137.965,314.431z M137.519,317.015c0.398-0.101,1.404-0.849,1.313-0.827
		C137.576,316.512,137.312,317.066,137.519,317.015L137.519,317.015z M138.94,330.205L138.94,330.205
		C138.479,330.516,138.883,329.702,138.94,330.205L138.94,330.205z M137.576,330.773c0.041,0.022,0.188,0.038,0.149,0
		c-0.9-0.927-1.518-0.871-1.374-0.728C136.683,330.386,137.157,330.552,137.576,330.773L137.576,330.773z M137.585,328.229
		c0.397-0.008,1.59,0.9,1.229,0.91C138.072,329.16,137.225,328.241,137.585,328.229L137.585,328.229z M107.326,354.129
		L107.326,354.129c0.213-0.132,0.508-0.181,0.649-0.397c1.145-1.736,2.349-3.468,3.171-5.381c0.104-0.247-0.547-0.581-0.704-0.37
		c-1.274,1.72-2.192,3.674-3.16,5.584C107.194,353.734,107.311,353.938,107.326,354.129L107.326,354.129z M109.018,353.091
		c0.19-1.721,1.616-3.085,2.659-4.471c0.114-0.155,0.348,0.166,0.505,0.261c0.06,0.035-0.499,2.329-0.847,2.793
		C110.789,352.396,108.915,353.996,109.018,353.091L109.018,353.091z M109.906,347.712c-0.8,1.656-1.233,3.702-2.702,4.815
		c-0.691,0.532-0.204-1.735-0.183-2.612l0.24,0.173c0.786-0.84,1.499-1.755,2.355-2.526
		C109.702,347.49,109.953,347.618,109.906,347.712L109.906,347.712z M109.365,347.435c0.167-0.15-0.389-0.41-0.584-0.305
		c-0.745,0.384-1.884,1.65-1.84,1.631C107.761,348.338,108.675,348.047,109.365,347.435L109.365,347.435z M113.755,350.097
		c-0.397-0.044-0.234-2.461-0.217-2.769C113.605,346.533,115.298,350.273,113.755,350.097L113.755,350.097z M114.895,349.318
		c-2.134-2.662-0.325-3.689,0.438-0.305C115.371,349.187,115.002,349.454,114.895,349.318L114.895,349.318z M115.892,348.633
		c-0.748,0.052-1.094-1.115-1.333-1.827c-0.073-0.22,0.414-0.431,0.622-0.316c0.219,0.121-0.081,0.637,0.144,0.738
		c1.473,0.645,1.616-0.756,1.827-1.57c0.015-0.059-0.167-0.079-0.129-0.108c0.667-0.554,1.313-0.33,2.058-0.025
		c0.067,0.036-0.14,0.09-0.14,0.159c-0.015,0.27,0.286,0.606,0.097,0.784C118.127,347.355,117.16,348.534,115.892,348.633
		L115.892,348.633z M116.218,345.955c0.111,0.026,0.187,0.187,0.167,0.308C116.207,347.264,115.389,345.797,116.218,345.955
		L116.218,345.955z M116.151,351.9c-1.952-2.485-0.395-3.551,0.394-0.271C116.587,351.782,116.25,352.023,116.151,351.9
		L116.151,351.9z M117.575,350.933c-0.739,0.028-1.593-1.111-1.309-1.791c0.44-1.06,1.717-1.843,2.863-1.906
		c0.585-0.035-0.176,1.307,0.222,1.734c0.258,0.273,0.716-0.325,1.09-0.32c0.111,0.006,0.087,0.267,0.003,0.33
		C119.538,349.701,118.735,350.885,117.575,350.933L117.575,350.933z M114.599,350.255c-0.061-0.094-0.308,0.078-0.273,0.184
		C114.73,351.83,115.386,351.391,114.599,350.255L114.599,350.255z M116.53,352.671c-0.04-0.153,0.288-0.373,0.384-0.258
		c0.97,1.218,0.871,2.603,0.584,2.248C117.037,354.079,116.715,353.381,116.53,352.671L116.53,352.671z M118.097,351.65
		c1.321-2.282,2.674-0.628,0.55,0.752C118.387,352.575,117.943,351.914,118.097,351.65L118.097,351.65z M107.93,346.694l2.276-1.345
		c-1.774,0.412-2.829,0.105-2.518,1.384C107.705,346.814,107.855,346.734,107.93,346.694L107.93,346.694z M110.189,345.181
		c0.188-0.062,0.165-0.544-0.02-0.571c-0.774-0.111-1.589-0.022-2.333,0.206c-0.169,0.058-0.215,0.506-0.04,0.528
		C108.594,345.463,109.427,345.409,110.189,345.181L110.189,345.181z M110.154,344.345c-0.748,0.127-1.914,0.431-2.263-0.242
		c-0.546-1.083,0.039-2.446,0.288-3.632c0.035-0.186,0.392-0.077,0.502-0.217c0.152-0.183-0.002-0.741,0.216-0.67
		c0.479,0.167,0.818,0.659,1.07,1.107c0.596,1.056-0.804,1.291-0.938,2.038c-0.035,0.198,0.356,1.063,0.552,1.18
		c0.178-0.058,0.39-0.3,0.539-0.185C110.286,343.853,110.358,344.314,110.154,344.345L110.154,344.345z M110.081,342.939
		c-0.21,0.266-0.525,0-0.192-0.424C110.049,342.308,110.175,342.818,110.081,342.939L110.081,342.939z M106.624,346.228
		c0.012-0.176,0.34-0.139,0.512-0.127C107.392,346.122,106.607,346.56,106.624,346.228L106.624,346.228z M107.176,345.388
		c-0.72,0.211-1.505,0.268-2.244,0.155c-0.158-0.02-0.12-0.427,0.032-0.468C107.548,344.31,107.544,345.279,107.176,345.388
		L107.176,345.388z M107.27,344.033c-0.465,0.576-1.87,0.421-2.209-0.234c-0.54-1.052-0.035-2.397,0.257-3.545
		c0.114-0.428-0.111,1.183,0.316,1.283c0.648,0.153,1.476-1.328,1.841-0.775C108.073,341.679,107.945,343.179,107.27,344.033
		L107.27,344.033z M100.808,345.832c-0.176-0.017,0.147-0.383,0.319-0.421c0.172-0.037,3.413-0.503,2.969-0.121
		C103.345,345.94,101.737,345.924,100.808,345.832L100.808,345.832z M102.535,343.526c-0.07,0.585,1.397,0.655,1.751,0.185
		c0.601-0.807,1.358-2.892,0.359-3.006C103.479,340.577,102.676,342.364,102.535,343.526L102.535,343.526z M89.11,322.458
		L89.11,322.458c0.225,0.116,0.418,0.348,0.669,0.366c2.08,0.126,4.181,0.298,6.256,0.05c0.261-0.027,0.222-0.76-0.046-0.789
		c-2.119-0.247-4.273-0.065-6.406,0.056C89.396,322.146,89.267,322.353,89.11,322.458L89.11,322.458z M90.857,323.405
		c1.586-0.691,3.477-0.143,5.202,0.066c0.187,0.025,0.026,0.382,0.032,0.571c-0.003,0.066-2.271,0.733-2.849,0.664
		C92.353,324.589,90.03,323.768,90.857,323.405L90.857,323.405z M95.966,321.485c-1.836,0.138-3.826,0.783-5.523,0.069
		c-0.807-0.333,1.402-1.045,2.168-1.467c0.088-0.046-0.02,0.196-0.029,0.295l3.366,0.778
		C96.05,321.195,96.07,321.477,95.966,321.485L95.966,321.485z M95.931,320.884c-0.871-0.296-1.584-0.943-2.356-1.447
		c-0.064-0.037,1.712,0.392,2.329,0.783C96.085,320.34,96.141,320.954,95.931,320.884L95.931,320.884z M96.2,325.548
		c-0.854,0.594,0.097,0.961,0.351,0.811C97.353,325.879,100.15,322.846,96.2,325.548L96.2,325.548z M98.403,324.628
		c0.14-0.13,0.543,0.133,0.477,0.309c-0.283,0.726-0.77,1.373-1.333,1.9c-0.135,0.119-0.546-0.062-0.48-0.229
		C97.36,325.866,97.819,325.17,98.403,324.628L98.403,324.628z M99.072,325.062c-0.502,0.565-1.338,1.441-0.911,2.062
		c0.715,1.052,2.215,1.302,3.441,1.647c0.252,0.075,0.398-0.359,0.632-0.48c0.062-0.032,0.222,0.121,0.205,0.051
		c-0.099-0.807-0.236-1.474-1.041-1.773c-0.049-0.025,0.018,0.15-0.03,0.16c-2.097,0.593-1.435,0.418-2.27-0.793l0,0
		c0.187-0.162,0.57-0.246,0.564-0.496C99.657,325.209,99.228,324.89,99.072,325.062L99.072,325.062z M100.276,325.843
		c-0.438,0.154-0.33,0.713,0.176,0.528C100.806,326.24,100.557,325.733,100.276,325.843L100.276,325.843z M95.373,327.595
		c-0.304-0.153,0.204-0.677,0.436-0.922c0.075-0.083,0.347,0.05,0.301,0.146C95.954,327.137,95.688,327.741,95.373,327.595
		L95.373,327.595z M96.717,327.123c0.126-0.117,0.528,0.075,0.471,0.225c-0.284,0.704-0.748,1.326-1.298,1.848
		c-0.114,0.106-0.491-0.06-0.426-0.205C95.735,328.291,96.176,327.64,96.717,327.123L96.717,327.123z M97.901,327.713
		c1.14-0.146,2.463,0.561,3.091,1.52c0.315,0.493-1.225,0.502-1.399,1.062c-0.111,0.363,0.64,0.452,0.827,0.789
		c0.052,0.095-0.184,0.204-0.284,0.166c-1.079-0.424-2.508-0.537-3.131-1.512C96.609,329.113,97.165,327.803,97.901,327.713
		L97.901,327.713z M94.978,329.7c0.111-0.111,0.468,0.067,0.412,0.208c-0.576,1.473-1.809,2.04-1.646,1.621
		C94.011,330.847,94.455,330.215,94.978,329.7L94.978,329.7z M96.649,330.552c-0.312,0-0.658,0.713-0.377,0.854
		C98.526,332.554,99.28,330.552,96.649,330.552L96.649,330.552z M95.857,319.261l2.3,1.301c-1.24-1.32-1.505-2.397-2.455-1.486
		C95.642,319.131,95.791,319.224,95.857,319.261L95.857,319.261z M98.301,320.469c-0.585-0.551-1.052-1.245-1.342-1.997
		c-0.062-0.163,0.348-0.344,0.477-0.224c0.566,0.531,1.055,1.187,1.341,1.914C98.845,320.338,98.44,320.592,98.301,320.469
		L98.301,320.469z M98.999,320.018c0.085,0.097,1.043-0.173,0.091-0.713c0.251-0.358,0.333-0.926,0.743-1.071
		c0.718-0.255,1.622,0.836,2.245-0.207c0.253-0.439,0.52-0.978,0.42-1.479c-0.046-0.228-0.455,0.195-0.69,0.157
		c-0.181-0.032-0.26-0.397-0.439-0.337c-1.151,0.384-2.624,0.547-3.29,1.57C97.672,318.572,98.517,319.435,98.999,320.018
		L98.999,320.018z M100.186,319.255c0.149,0.018,0.532-0.344,0.275-0.383C99.919,318.797,99.853,319.203,100.186,319.255
		L100.186,319.255z M95.613,317.902c-0.304,0.151,0.473,0.61,0.356,0.377C95.898,318.119,95.767,317.83,95.613,317.902
		L95.613,317.902z M96.612,317.957c0.28,0.276,1.116-0.221-0.833-2.071c-0.111-0.111-0.485,0.061-0.426,0.208
		C95.632,316.789,96.07,317.442,96.612,317.957L96.612,317.957z M97.827,317.359c-0.733-0.106-1.294-1.409-0.896-2.029
		c0.642-0.995,2.06-1.227,3.197-1.542c0.427-0.12-1.078,0.488-0.953,0.915c0.192,0.634,1.893,0.608,1.593,1.203
		C100.271,316.879,98.911,317.521,97.827,317.359L97.827,317.359z M93.038,312.671c-0.07-0.16,0.409-0.066,0.531,0.065
		c0.115,0.119,2.143,2.702,1.584,2.504C94.224,314.916,93.426,313.513,93.038,312.671L93.038,312.671z M95.904,313.007
		c-0.535,0.235,0.126,1.544,0.713,1.61c1,0.123,3.191-0.269,2.779-1.188C98.924,312.355,96.986,312.545,95.904,313.007
		L95.904,313.007z M107.436,290.848L107.436,290.848c0.006,0.255-0.096,0.537,0.021,0.765c0.929,1.861,1.827,3.772,3.075,5.442
		c0.157,0.213,0.777-0.191,0.669-0.431c-0.851-1.961-2.084-3.735-3.252-5.525C107.843,290.939,107.605,290.934,107.436,290.848
		L107.436,290.848z M107.486,292.839c1.397,1.026,1.864,2.94,2.542,4.539c0.076,0.176-0.315,0.214-0.476,0.308
		c-0.062,0.035-1.769-1.597-1.999-2.132C107.205,294.716,106.762,292.295,107.486,292.839L107.486,292.839z M111.703,296.299
		c-1.035-1.521-2.586-2.919-2.817-4.745c-0.114-0.866,1.607,0.692,2.35,1.142c0.088,0.052-0.178,0.079-0.275,0.123l1.017,3.306
		C112.001,296.226,111.768,296.388,111.703,296.299L111.703,296.299z M112.211,295.969c-0.181-0.899,0.023-1.841,0.07-2.764
		c0.003-0.084,0.521,1.685,0.488,2.407C112.758,295.832,112.255,296.184,112.211,295.969L112.211,295.969z M107.711,298.445
		c-0.918,1.244,3.157,1.639,2.504,1.197C109.967,299.464,107.95,298.117,107.711,298.445L107.711,298.445z M107.818,299.819
		c-0.169,0.023-0.125,0.472,0.042,0.528C111.168,301.375,111.197,299.296,107.818,299.819L107.818,299.819z M107.913,301.026
		c0.327-0.679,1.507-0.399,2.247-0.25c0.234,0.05,0.164,0.58-0.035,0.699c-0.213,0.128-0.473-0.162-0.712-0.239l0,0
		c-0.628,1.326-1.107,0.847,0.453,2.364c0.038,0.037,0.146-0.111,0.154-0.061c0.135,0.849-0.365,1.298-1.011,1.799
		c-0.059,0.04-0.003-0.167-0.063-0.206c-0.223-0.146-0.673-0.052-0.738-0.309C107.907,303.588,107.366,302.165,107.913,301.026
		L107.913,301.026z M110.069,302.628c-0.079,0.096-0.259,0.079-0.347,0C108.941,301.981,110.62,302.002,110.069,302.628
		L110.069,302.628z M104.956,299.613c3.131-0.447,3.263,1.438,0.035,0.475C104.839,300.043,104.797,299.636,104.956,299.613
		L104.956,299.613z M105.081,301.326c0.345-0.647,1.759-0.829,2.203-0.238c0.693,0.915,0.739,2.412,0.226,3.441
		c-0.272,0.523-1.046-0.817-1.617-0.681c-0.372,0.081-0.081,0.78-0.274,1.112c-0.049,0.092-0.269-0.058-0.284-0.168
		C105.166,303.649,104.538,302.352,105.081,301.326L105.081,301.326z M107.159,299.089c-1.385,0.106-1.435-0.676-0.021-0.33
		C107.244,298.787,107.27,299.084,107.159,299.089L107.159,299.089z M104.099,299.552c0.148,0.042,0.178,0.439,0.023,0.462
		c-1.531,0.229-2.686-0.55-2.235-0.613C102.621,299.284,103.392,299.354,104.099,299.552L104.099,299.552z M104.193,301.426
		c-0.15-0.275-0.938-0.21-0.92,0.098C103.404,304.05,105.519,303.698,104.193,301.426L104.193,301.426z M113.661,294.865
		c-0.079-0.023-0.084,0.146-0.09,0.226l0.028,2.646C114.143,295.973,114.915,295.238,113.661,294.865L113.661,294.865z
		 M114.812,295.656c0.109-0.14,0.47,0.127,0.43,0.299C114.469,299.354,112.667,298.342,114.812,295.656L114.812,295.656z
		 M115.838,296.355c1.21,0.067,2.096,1.26,3.002,2.069c0.137,0.119-0.136,0.376-0.071,0.546c0.088,0.219,0.652,0.359,0.477,0.511
		c-0.512,0.457-1.812,0.634-2.274-0.021c-0.295-0.415-0.132-1.106-0.517-1.437c-0.395-0.333-1.021,0.048-1.296-0.106
		c-0.04,0.187,0.065,0.485-0.113,0.556c-0.193,0.089-0.625-0.083-0.559-0.277C114.761,297.48,115.079,296.317,115.838,296.355
		L115.838,296.355z M116.13,299.029c-0.724-0.075-0.234-0.941,0.085-0.146C116.233,298.937,116.187,299.038,116.13,299.029
		L116.13,299.029z M116.07,293.073c0.095-0.121,0.43,0.111,0.394,0.263C115.666,296.619,114.12,295.555,116.07,293.073
		L116.07,293.073z M117.519,294.059c1.184,0.052,2.087,1.171,2.937,1.998c0.315,0.304-0.968-0.691-1.271-0.369
		c-0.453,0.478,0.419,1.946-0.245,1.981c-1.096,0.059-2.33-0.806-2.73-1.823C115.938,295.16,116.779,294.023,117.519,294.059
		L117.519,294.059z M114.482,294.701c-0.143,0.218-0.134-0.688,0.149-0.502C114.781,294.292,114.585,294.558,114.482,294.701
		L114.482,294.701z M116.68,291.821c-0.049,0.133,0.064,0.896,0.14,0.745c0.467-0.887,0.956-1.772,1.263-2.715
		c0.058-0.174-0.105-0.633-0.205-0.488C117.347,290.098,116.999,290.966,116.68,291.821L116.68,291.821z M117.978,293.422
		c-0.234-0.53,0.567-1.766,1.035-1.41c0.941,0.698,2.077,2.289,1.384,3.231C119.805,296.06,118.381,294.35,117.978,293.422
		L117.978,293.422z M143.971,290.917L143.971,290.917c-0.216,0.135-0.509,0.184-0.649,0.396c-1.147,1.736-2.355,3.476-3.174,5.386
		c-0.104,0.25,0.547,0.581,0.704,0.366c1.274-1.716,2.189-3.671,3.162-5.581C144.099,291.313,143.985,291.103,143.971,290.917
		L143.971,290.917z M142.272,291.955c-0.19,1.725-1.616,3.085-2.654,4.477c-0.117,0.15-0.339-0.174-0.511-0.264
		c-0.053-0.035,0.503-2.333,0.851-2.794C140.505,292.652,142.377,291.055,142.272,291.955L142.272,291.955z M141.384,297.339
		c0.804-1.66,1.233-3.702,2.7-4.822c0.692-0.525,0.208,1.74,0.184,2.617c0.004,0.096-0.154-0.123-0.233-0.181l0,0
		c-0.788,0.848-1.502,1.761-2.354,2.536C141.595,297.559,141.34,297.433,141.384,297.339L141.384,297.339z M141.929,297.615
		c-0.171,0.149,0.385,0.405,0.58,0.3c0.652-0.334,1.915-1.661,1.844-1.625C143.532,296.71,142.617,297.002,141.929,297.615
		L141.929,297.615z M137.538,294.953c0.395,0.043,0.235,2.464,0.217,2.763C137.692,298.502,135.998,294.783,137.538,294.953
		L137.538,294.953z M136.4,295.732c2.135,2.663,0.325,3.679-0.438,0.303C135.928,295.857,136.291,295.597,136.4,295.732
		L136.4,295.732z M135.404,296.415c0.748-0.052,1.1,1.109,1.336,1.822c0.067,0.227-0.423,0.433-0.628,0.325
		c-0.213-0.127-0.09-0.499-0.147-0.744l0,0c-1.461,0.122-1.285-0.538-1.822,1.572c-0.016,0.056,0.175,0.078,0.128,0.113
		c-0.658,0.537-1.312,0.328-2.061,0.017c-0.064-0.025,0.144-0.084,0.144-0.154c0.018-0.267-0.289-0.606-0.094-0.791
		C133.175,297.694,134.136,296.514,135.404,296.415L135.404,296.415z M135.089,299.084c-0.12-0.017-0.189-0.189-0.178-0.298
		C135.089,297.786,135.907,299.247,135.089,299.084L135.089,299.084z M135.139,293.152c1.955,2.479,0.395,3.544-0.388,0.26
		C134.706,293.265,135.045,293.021,135.139,293.152L135.139,293.152z M133.725,294.113c0.733-0.026,1.589,1.114,1.306,1.793
		c-0.444,1.057-1.722,1.844-2.87,1.91c-0.581,0.032,0.185-1.313-0.214-1.738c-0.26-0.284-0.718,0.323-1.102,0.318
		c-0.104,0-0.081-0.26,0.007-0.334C131.752,295.349,132.561,294.157,133.725,294.113L133.725,294.113z M136.696,294.794
		c0.061,0.09,0.304-0.079,0.274-0.184C136.567,293.227,135.913,293.651,136.696,294.794L136.696,294.794z M134.77,292.378
		c0.035,0.146-0.294,0.373-0.391,0.247c-0.971-1.205-0.868-2.598-0.579-2.237C134.256,290.964,134.582,291.661,134.77,292.378
		L134.77,292.378z M133.198,293.395c-1.322,2.289-2.675,0.625-0.556-0.745C132.908,292.48,133.353,293.128,133.198,293.395
		L133.198,293.395z M143.364,298.347l-2.278,1.351c1.798-0.42,2.823-0.102,2.519-1.386
		C143.588,298.237,143.436,298.312,143.364,298.347L143.364,298.347z M141.101,299.868c-0.178,0.062-0.16,0.541,0.026,0.567
		c0.774,0.111,1.584,0.023,2.326-0.205c0.173-0.055,0.219-0.499,0.044-0.527C142.701,299.587,141.869,299.634,141.101,299.868
		L141.101,299.868z M141.138,300.701c0.751-0.129,1.918-0.433,2.26,0.242c0.553,1.091-0.039,2.447-0.28,3.636
		c-0.035,0.178-0.389,0.069-0.508,0.215c-0.15,0.183,0.008,0.748-0.215,0.668c-0.481-0.167-0.814-0.659-1.069-1.104
		c-0.597-1.055,0.804-1.294,0.947-2.047c0.076-0.421-0.374-0.782-0.559-1.174l0,0c-0.184,0.064-0.389,0.298-0.538,0.18
		C141.007,301.193,140.94,300.73,141.138,300.701L141.138,300.701z M141.208,302.109c0.217-0.264,0.53,0,0.196,0.423
		C141.241,302.738,141.118,302.229,141.208,302.109L141.208,302.109z M144.665,298.821c-0.011,0.169-0.336,0.141-0.504,0.129
		C143.905,298.92,144.684,298.484,144.665,298.821L144.665,298.821z M144.116,299.665c0.719-0.214,1.503-0.271,2.25-0.165
		c0.146,0.025,0.114,0.43-0.034,0.475C143.745,300.736,143.745,299.768,144.116,299.665L144.116,299.665z M144.029,301.01
		c0.455-0.572,1.861-0.417,2.206,0.241c0.538,1.052,0.028,2.395-0.263,3.542c-0.105,0.419,0.117-1.188-0.316-1.284
		c-0.649-0.15-1.476,1.333-1.841,0.775C143.22,303.369,143.346,301.871,144.029,301.01L144.029,301.01z M150.479,299.213
		c0.178,0.018-0.138,0.385-0.313,0.423c-0.172,0.039-3.407,0.5-2.969,0.123C147.948,299.107,149.553,299.124,150.479,299.213
		L150.479,299.213z M148.757,301.523c0.07-0.585-1.396-0.66-1.744-0.188c-0.608,0.81-1.371,2.9-0.365,3.006
		C147.812,304.472,148.62,302.685,148.757,301.523L148.757,301.523z M162.18,322.586c-0.215-0.128-0.418-0.348-0.669-0.361
		c-2.082-0.123-4.186-0.298-6.246-0.057c-0.266,0.036-0.224,0.765,0.035,0.796c2.126,0.24,4.277,0.059,6.409-0.056
		C161.898,322.898,162.025,322.696,162.18,322.586L162.18,322.586z M160.44,321.642c-1.595,0.694-3.485,0.143-5.21-0.068
		c-0.189-0.021-0.026-0.378-0.023-0.57c-0.003-0.063,2.266-0.728,2.845-0.661C158.947,320.457,161.268,321.279,160.44,321.642
		L160.44,321.642z M155.329,323.558c1.835-0.132,3.826-0.774,5.52-0.068c0.809,0.334-1.404,1.052-2.168,1.465
		c-0.083,0.048,0.021-0.193,0.035-0.291l0,0c-1.127-0.259-2.276-0.419-3.371-0.773C155.238,323.855,155.22,323.568,155.329,323.558
		L155.329,323.558z M155.359,324.168c0.874,0.293,1.59,0.936,2.357,1.441c0.076,0.036-1.712-0.393-2.329-0.781
		C155.207,324.708,155.146,324.095,155.359,324.168L155.359,324.168z M155.093,319.501c0.859-0.59-0.096-0.963-0.347-0.811
		C153.938,319.171,151.142,322.204,155.093,319.501L155.093,319.501z M152.887,320.418c-0.138,0.13-0.541-0.128-0.474-0.304
		c0.28-0.724,0.766-1.373,1.336-1.906c0.132-0.115,0.544,0.066,0.479,0.231C153.933,319.185,153.478,319.881,152.887,320.418
		L152.887,320.418z M152.218,319.985c0.502-0.563,1.342-1.443,0.911-2.063c-0.716-1.049-2.214-1.299-3.439-1.645
		c-0.251-0.076-0.396,0.354-0.631,0.479c-0.062,0.029-0.219-0.123-0.205-0.05c0.104,0.801,0.239,1.467,1.041,1.776
		c0.055,0.018-0.019-0.154,0.037-0.17c0.494-0.14,1.034-0.444,1.522-0.27c0.494,0.164,0.469,0.907,0.748,1.062
		c-0.189,0.163-0.575,0.255-0.565,0.501C151.639,319.84,152.071,320.156,152.218,319.985L152.218,319.985z M151.019,319.209
		c0.439-0.157,0.331-0.715-0.184-0.531C150.49,318.802,150.742,319.311,151.019,319.209L151.019,319.209z M155.923,317.458
		c0.301,0.152-0.208,0.672-0.438,0.915c-0.075,0.081-0.345-0.047-0.301-0.14C155.338,317.912,155.604,317.303,155.923,317.458
		L155.923,317.458z M154.576,317.926c-0.13,0.12-0.529-0.07-0.465-0.229c0.278-0.699,0.748-1.329,1.295-1.848
		c0.11-0.108,0.487,0.061,0.424,0.212C155.556,316.757,155.12,317.408,154.576,317.926L154.576,317.926z M153.393,317.341
		c-1.141,0.144-2.461-0.563-3.092-1.527c-0.316-0.492,1.225-0.497,1.402-1.061c0.112-0.366-0.643-0.46-0.832-0.791
		c-0.051-0.095,0.181-0.204,0.286-0.163c1.075,0.427,2.513,0.531,3.133,1.513C154.681,315.932,154.126,317.248,153.393,317.341
		L153.393,317.341z M156.314,315.348c-0.111,0.108-0.47-0.063-0.411-0.208c0.575-1.466,1.812-2.038,1.651-1.627
		C157.283,314.199,156.838,314.833,156.314,315.348L156.314,315.348z M154.646,314.501c0.31,0,0.657-0.713,0.376-0.854
		C152.768,312.496,152.013,314.497,154.646,314.501L154.646,314.501z M155.443,325.781l-2.306-1.301
		c1.257,1.327,1.493,2.402,2.458,1.49C155.648,325.916,155.508,325.829,155.443,325.781L155.443,325.781z M152.992,324.58
		c0.581,0.544,1.049,1.245,1.344,1.998c0.062,0.159-0.347,0.34-0.481,0.225c-0.564-0.533-1.05-1.191-1.336-1.923
		C152.451,324.708,152.849,324.454,152.992,324.58L152.992,324.58z M152.294,325.028c-0.132-0.158-0.497,0.133-0.523,0.341
		c-0.023,0.188,0.29,0.251,0.43,0.377l0,0c-0.242,0.354-0.337,0.924-0.746,1.066c-0.712,0.255-1.622-0.836-2.235,0.206
		c-0.26,0.443-0.525,0.977-0.428,1.481c0.054,0.23,0.462-0.191,0.69-0.152c0.181,0.029,0.27,0.386,0.441,0.334
		c1.152-0.384,2.628-0.554,3.287-1.574C153.629,326.474,152.775,325.614,152.294,325.028L152.294,325.028z M151.109,325.799
		c-0.152-0.025-0.534,0.336-0.274,0.379C151.373,326.256,151.442,325.852,151.109,325.799L151.109,325.799z M155.681,327.146
		c0.305-0.155-0.472-0.611-0.359-0.378C155.396,326.925,155.528,327.22,155.681,327.146L155.681,327.146z M154.685,327.085
		c-0.284-0.267-1.114,0.225,0.829,2.077c0.11,0.108,0.484-0.057,0.424-0.207C155.663,328.256,155.222,327.604,154.685,327.085
		L154.685,327.085z M153.471,327.687c0.725,0.107,1.295,1.406,0.893,2.029c-0.641,0.996-2.058,1.228-3.198,1.545
		c-0.426,0.12,1.082-0.494,0.955-0.915c-0.192-0.637-1.894-0.613-1.595-1.203C151.024,328.16,152.384,327.523,153.471,327.687
		L153.471,327.687z M158.256,332.378c0.072,0.163-0.407,0.07-0.526-0.062c-0.116-0.128-2.134-2.702-1.596-2.513
		C157.077,330.138,157.866,331.524,158.256,332.378L158.256,332.378z M155.392,332.035c0.538-0.23-0.129-1.536-0.711-1.61
		c-1.005-0.114-3.197,0.276-2.785,1.195C152.372,332.696,154.31,332.497,155.392,332.035L155.392,332.035z M143.856,354.197
		L143.856,354.197c-0.006-0.259,0.094-0.539-0.018-0.766c-0.929-1.861-1.833-3.771-3.077-5.438c-0.158-0.213-0.778,0.19-0.673,0.435
		c0.854,1.958,2.09,3.731,3.259,5.516C143.45,354.109,143.684,354.111,143.856,354.197L143.856,354.197z M143.807,352.209
		c-1.395-1.03-1.862-2.943-2.546-4.541c-0.072-0.173,0.315-0.213,0.48-0.305c0.066-0.037,1.773,1.606,1.998,2.128
		C144.084,350.327,144.534,352.742,143.807,352.209L143.807,352.209z M139.593,348.743c1.031,1.528,2.586,2.922,2.819,4.747
		c0.117,0.867-1.61-0.687-2.354-1.146c-0.085-0.046,0.18-0.073,0.271-0.113l0,0c-0.341-1.1-0.774-2.178-1.014-3.306
		C139.294,348.816,139.531,348.655,139.593,348.743L139.593,348.743z M139.078,349.076c0.187,0.905-0.018,1.845-0.068,2.768
		c-0.002,0.097-0.519-1.692-0.487-2.408C138.535,349.221,139.04,348.86,139.078,349.076L139.078,349.076z M143.584,346.604
		c0.919-1.242-3.161-1.646-2.508-1.202C141.325,345.581,143.341,346.928,143.584,346.604L143.584,346.604z M143.474,345.229
		c0.172-0.022,0.123-0.475-0.045-0.525C140.121,343.672,140.104,345.748,143.474,345.229L143.474,345.229z M143.38,344.023
		c-0.327,0.681-1.508,0.396-2.25,0.248c-0.144-0.035-0.459-1.158,0.755-0.459c0.622-1.325,1.108-0.85-0.452-2.368
		c-0.039-0.04-0.151,0.115-0.16,0.062c-0.135-0.846,0.377-1.308,1.012-1.797c0.058-0.049,0.009,0.168,0.064,0.204
		c0.225,0.146,0.668,0.053,0.73,0.312C143.392,341.457,143.924,342.884,143.38,344.023L143.38,344.023z M141.226,342.409
		c0.073-0.083,0.255-0.069,0.351,0.007C142.357,343.064,140.677,343.047,141.226,342.409L141.226,342.409z M146.334,345.436
		c-3.128,0.445-3.259-1.435-0.035-0.478C146.454,345.006,146.495,345.409,146.334,345.436L146.334,345.436z M146.208,343.723
		c-0.341,0.652-1.753,0.824-2.2,0.236c-0.695-0.914-0.742-2.417-0.225-3.438c0.269-0.521,1.052,0.805,1.613,0.682
		c0.374-0.084,0.082-0.783,0.277-1.115c0.053-0.088,0.27,0.058,0.281,0.168C146.124,341.401,146.752,342.697,146.208,343.723
		L146.208,343.723z M144.134,345.952c1.389-0.099,1.43,0.681,0.027,0.333C144.052,346.263,144.023,345.968,144.134,345.952
		L144.134,345.952z M147.188,345.493c-0.144-0.04-0.17-0.436-0.017-0.458c1.528-0.231,2.69,0.54,2.232,0.612
		C148.672,345.762,147.904,345.689,147.188,345.493L147.188,345.493z M147.098,343.619c0.146,0.273,0.944,0.215,0.923-0.093
		C147.889,340.999,145.776,341.341,147.098,343.619L147.098,343.619z M137.628,350.181c0.08,0.026,0.088-0.141,0.094-0.225
		l-0.029-2.645C137.155,349.081,136.378,349.81,137.628,350.181L137.628,350.181z M136.486,349.389
		c-0.108,0.141-0.474-0.123-0.436-0.295C136.83,345.691,138.623,346.713,136.486,349.389L136.486,349.389z M135.46,348.69
		c-1.218-0.063-2.101-1.256-3.007-2.066c-0.138-0.119,0.137-0.377,0.066-0.546c-0.078-0.224-0.646-0.365-0.476-0.515
		c0.517-0.45,1.817-0.632,2.276,0.023c0.295,0.416,0.129,1.104,0.521,1.438c0.323,0.281,0.864,0.067,1.291,0.109l0,0
		c0.042-0.192-0.063-0.488,0.111-0.559c0.195-0.086,0.631,0.084,0.558,0.277C136.535,347.562,136.214,348.729,135.46,348.69
		L135.46,348.69z M135.159,346.022c0.727,0.073,0.233,0.936-0.081,0.145C135.06,346.112,135.109,346.01,135.159,346.022
		L135.159,346.022z M135.23,351.972c-0.102,0.132-0.432-0.113-0.396-0.263C135.626,348.437,137.178,349.481,135.23,351.972
		L135.23,351.972z M133.773,350.99c-1.179-0.062-2.087-1.171-2.938-2.002c-0.312-0.306,0.975,0.693,1.269,0.372
		c0.459-0.482-0.411-1.947,0.258-1.982c1.09-0.055,2.323,0.805,2.721,1.824C135.364,349.885,134.517,351.025,133.773,350.99
		L133.773,350.99z M136.811,350.348c0.149-0.22,0.138,0.683-0.15,0.502C136.519,350.751,136.711,350.493,136.811,350.348
		L136.811,350.348z M134.61,353.239c0.055-0.138-0.062-0.907-0.138-0.756c-0.469,0.889-0.956,1.773-1.26,2.716
		c-0.062,0.172,0.105,0.634,0.204,0.491C133.946,354.951,134.297,354.085,134.61,353.239L134.61,353.239z M133.318,351.619
		c0.231,0.537-0.564,1.77-1.035,1.42c-0.94-0.702-2.078-2.288-1.388-3.235C131.489,348.992,132.919,350.692,133.318,351.619
		L133.318,351.619z M125.416,327.614c0.026-0.133,0.362-0.133,0.385-0.003c0.042,0.216,0.088,2.061-0.146,2.021
		c-0.067-0.004-0.182-0.017-0.187-0.083C125.389,328.905,125.31,328.246,125.416,327.614L125.416,327.614z M121.131,324.867
		c0.119-0.044,0.284,0.251,0.192,0.333c-0.178,0.142-1.739,1.104-1.826,0.885c-0.023-0.065-0.073-0.169-0.023-0.206
		C119.995,325.492,120.518,325.094,121.131,324.867L121.131,324.867z M121.354,319.784c0.099,0.076-0.068,0.372-0.185,0.33
		c-0.21-0.075-1.835-0.95-1.681-1.141c0.039-0.052,0.101-0.145,0.167-0.115C120.245,319.114,120.859,319.366,121.354,319.784
		L121.354,319.784z M125.877,317.438c-0.018,0.122-0.366,0.126-0.383,0.002c-0.039-0.219-0.09-2.062,0.14-2.022
		c0.074,0.007,0.188,0.009,0.19,0.082C125.907,316.144,125.985,316.808,125.877,317.438L125.877,317.438z M130.171,320.179
		c-0.126,0.044-0.295-0.251-0.196-0.334c0.17-0.14,1.738-1.104,1.826-0.888c0.023,0.067,0.07,0.169,0.019,0.211
		C131.302,319.55,130.775,319.954,130.171,320.179L130.171,320.179z M129.937,325.262c-0.1-0.08,0.074-0.372,0.192-0.33
		c0.205,0.079,1.828,0.955,1.684,1.137c-0.046,0.058-0.11,0.148-0.175,0.123C131.047,325.936,130.437,325.676,129.937,325.262
		L129.937,325.262z M123.735,335.3l-0.702-1.561c-0.155-0.22-0.517-0.204-0.678-0.418c-0.476-0.617-0.505-1.613-1.175-2.017
		c-0.315-0.194-0.199,0.867-0.567,0.964c-0.356,0.088-0.855-0.22-0.953-0.584c-0.094-0.35,0.848-0.758,0.54-0.951
		c-0.602-0.365-1.411,0.07-2.112-0.007c-0.167-0.012-0.267-0.211-0.43-0.253c-0.807-0.206-1.639-0.291-2.455-0.458l1.423-0.054
		c0.117,0.022,0,0.335,0.121,0.335c1.065-0.027,1.721-1.716,5.646,1.439c0.841,0.688,0.561,1.816,0.897,2.424
		C123.51,334.561,123.737,333.104,123.735,335.3L123.735,335.3z M121.286,332.674c0.015-0.032-0.035-0.084-0.066-0.11
		L121.286,332.674L121.286,332.674z M119.085,331.335C119.094,331.335,119.065,331.337,119.085,331.335L119.085,331.335z
		 M135.755,330.565l-1.704-0.173c-0.266,0.023-0.435,0.35-0.698,0.384c-0.773,0.099-1.654-0.364-2.338,0.005
		c-0.321,0.172,0.658,0.615,0.556,0.968c-0.104,0.361-0.622,0.637-0.985,0.541c-0.351-0.096-0.234-1.117-0.552-0.94
		c-0.614,0.335-0.641,1.25-1.056,1.816c-0.099,0.141-0.324,0.123-0.441,0.243c-0.581,0.602-1.072,1.279-1.619,1.902l0.662-1.257
		c0.081-0.087,0.289,0.164,0.348,0.066c0.517-0.945-0.614-2.358,4.071-4.169c1.017-0.392,1.854,0.415,2.547,0.433
		C135.004,330.397,133.855,329.467,135.755,330.565L135.755,330.565z M132.25,331.374c-0.014-0.031-0.08-0.021-0.119,0.007
		L132.25,331.374L132.25,331.374z M129.998,332.611C130.004,332.602,129.995,332.616,129.998,332.611L129.998,332.611z
		 M137.661,317.795L137.661,317.795c-0.33,0.457-0.762,0.866-1.001,1.385c-0.112,0.245,0.093,0.555-0.013,0.797
		c-0.305,0.723-1.144,1.245-1.167,2.026c-0.006,0.364,0.862-0.263,1.116,0.008c0.264,0.263,0.236,0.854-0.026,1.117
		c-0.253,0.256-1.081-0.356-1.088,0.009c-0.018,0.699,0.765,1.185,1.048,1.821c0.068,0.157-0.057,0.345-0.009,0.506
		c0.231,0.802,0.568,1.564,0.835,2.356l-0.758-1.207c-0.036-0.109,0.293-0.168,0.231-0.269c-0.557-0.907-2.353-0.643-1.574-5.605
		c0.165-1.08,1.285-1.4,1.648-1.995C137.135,318.357,135.772,318.878,137.661,317.795L137.661,317.795z M136.614,321.228
		c-0.038,0.003-0.059,0.068-0.059,0.108L136.614,321.228L136.614,321.228z M136.556,323.803
		C136.565,323.812,136.55,323.797,136.556,323.803L136.556,323.803z M127.558,309.749L127.558,309.749
		c0.23,0.523,0.37,1.096,0.699,1.561c0.154,0.218,0.52,0.204,0.686,0.418c0.471,0.617,0.498,1.616,1.167,2.017
		c0.314,0.194,0.2-0.868,0.565-0.964c0.366-0.095,0.858,0.225,0.957,0.583c0.099,0.348-0.848,0.756-0.538,0.954
		c0.603,0.362,1.408-0.074,2.107,0c0.166,0.013,0.271,0.219,0.427,0.264c0.812,0.199,1.646,0.285,2.463,0.452l-1.426,0.045
		c-0.108-0.021-0.003-0.329-0.114-0.329c-1.072,0.025-1.727,1.716-5.646-1.436c-0.851-0.691-0.567-1.817-0.9-2.434
		C127.782,310.484,127.554,311.945,127.558,309.749L127.558,309.749z M130.006,312.376c-0.018,0.034,0.031,0.084,0.071,0.103
		L130.006,312.376L130.006,312.376z M132.207,313.711C132.203,313.71,132.225,313.71,132.207,313.711L132.207,313.711z
		 M115.537,314.484L115.537,314.484c0.566,0.057,1.137,0.219,1.707,0.166c0.264-0.018,0.431-0.343,0.7-0.378
		c0.77-0.1,1.65,0.369,2.332-0.005c0.327-0.179-0.651-0.618-0.547-0.975c0.1-0.356,0.617-0.631,0.977-0.537
		c0.355,0.092,0.235,1.116,0.554,0.943c0.614-0.336,0.646-1.252,1.058-1.824c0.097-0.136,0.324-0.122,0.438-0.237
		c0.576-0.604,1.076-1.285,1.619-1.901l-0.663,1.257c-0.077,0.085-0.287-0.166-0.343-0.064c-0.517,0.938,0.614,2.35-4.07,4.162
		c-1.018,0.397-1.855-0.414-2.551-0.427C116.291,314.652,117.429,315.575,115.537,314.484L115.537,314.484z M119.036,313.674
		c0.023,0.031,0.093,0.018,0.128-0.006L119.036,313.674L119.036,313.674z M121.299,312.433
		C121.301,312.425,121.292,312.44,121.299,312.433L121.299,312.433z M113.632,327.257c1.9-1.096,0.527-0.568,0.757-0.952
		c0.362-0.598,1.479-0.911,1.648-1.99c0.772-4.972-1.023-4.708-1.572-5.611c-0.056-0.104,0.263-0.161,0.231-0.271l-0.761-1.207
		c0.267,0.792,0.605,1.559,0.836,2.357c0.047,0.161-0.082,0.352-0.011,0.501c0.283,0.646,1.066,1.127,1.052,1.831
		c-0.009,0.366-0.839-0.253-1.091,0.003c-0.262,0.268-0.289,0.858-0.029,1.117c0.255,0.274,1.128-0.356,1.12,0.012
		c-0.021,0.781-0.865,1.31-1.163,2.022c-0.106,0.247,0.093,0.561-0.018,0.801C114.389,326.386,113.962,326.794,113.632,327.257
		L113.632,327.257L113.632,327.257z M114.673,323.823l0.064-0.109C114.74,323.749,114.719,323.817,114.673,323.823L114.673,323.823z
		 M114.733,321.245C114.743,321.252,114.722,321.23,114.733,321.245L114.733,321.245z M128.983,329.658
		c-0.359,0.832,1.119,1.127,1.549,0.13C130.88,328.984,129.44,328.611,128.983,329.658L128.983,329.658z M121.136,328.984
		c-0.9,0.106-0.412,1.529,0.662,1.401C122.668,330.291,122.273,328.854,121.136,328.984L121.136,328.984z M117.796,321.845
		c0.679,0.922-0.359,1.979-0.889,1.277C116.271,322.251,117.256,321.125,117.796,321.845L117.796,321.845z M122.311,315.383
		c0.352-0.824-1.119-1.115-1.549-0.128C120.412,316.061,121.85,316.438,122.311,315.383L122.311,315.383z M130.156,316.064
		c0.899-0.105,0.414-1.525-0.654-1.403C128.622,314.761,129.019,316.195,130.156,316.064L130.156,316.064z M133.493,323.198
		c0.544,0.727,1.537-0.406,0.892-1.269C133.853,321.222,132.814,322.28,133.493,323.198L133.493,323.198z M127.447,326.944
		c0.405,0.042,1.001-0.204,1.051-0.613c0.065-0.538-0.481-0.979-0.817-1.402c-0.43-0.528-1.143-2.024-1.461-1.423
		c-0.427,0.819,0.482,1.8,0.792,2.676C127.113,326.455,127.151,326.918,127.447,326.944L127.447,326.944z M122.721,326.291
		c-0.122-0.264,0.246-0.53,0.439-0.749c0.601-0.711,0.994-1.99,1.923-2.028c0.678-0.029-0.261,1.335-0.503,1.967
		c-0.199,0.509-0.307,1.198-0.803,1.415C123.402,327.058,122.885,326.667,122.721,326.291L122.721,326.291z M120.915,321.87
		c-0.239,0.334-0.319,0.977,0.011,1.218c0.432,0.33,1.094,0.072,1.625-0.013c0.672-0.103,2.321,0.031,1.958-0.541
		c-0.502-0.789-1.804-0.485-2.718-0.66C121.505,321.821,121.09,321.631,120.915,321.87L120.915,321.87z M123.846,318.103
		c-0.404-0.037-1.005,0.21-1.052,0.612c-0.062,0.54,0.484,0.985,0.824,1.411c0.429,0.527,1.139,2.021,1.452,1.417
		c0.424-0.827-0.484-1.805-0.794-2.685C124.179,318.583,124.138,318.128,123.846,318.103L123.846,318.103z M128.575,318.757
		c0.122,0.265-0.253,0.524-0.436,0.748c-0.608,0.715-1.006,1.991-1.932,2.03c-0.676,0.029,0.266-1.335,0.505-1.967
		c0.192-0.503,0.307-1.198,0.809-1.421C127.891,317.987,128.411,318.384,128.575,318.757L128.575,318.757z M130.375,323.177
		c0.239-0.33,0.318-0.975-0.008-1.212c-0.431-0.328-1.092-0.076-1.626,0.006c-0.672,0.106-2.318-0.026-1.959,0.546
		c0.504,0.783,1.805,0.483,2.72,0.655C129.788,323.224,130.208,323.414,130.375,323.177z"/>
</g>
</svg>
