<?xml version="1.0" encoding="utf-8"?>
<!-- Generator: Adobe Illustrator 15.0.0, SVG Export Plug-In  -->
<!DOCTYPE svg PUBLIC "-//W3C//DTD SVG 1.1//EN" "http://www.w3.org/Graphics/SVG/1.1/DTD/svg11.dtd" [
	<!ENTITY ns_flows "http://ns.adobe.com/Flows/1.0/">
]>
<svg version="1.1"
	 xmlns="http://www.w3.org/2000/svg" xmlns:xlink="http://www.w3.org/1999/xlink" xmlns:a="http://ns.adobe.com/AdobeSVGViewerExtensions/3.0/"
	 x="0px" y="0px" width="200px" height="200px" viewBox="18 27 200 200" overflow="visible" enable-background="new 18 27 200 200"
	 xml:space="preserve">
<defs>
</defs>
<rect display="none" fill="#C1272D" width="261" height="258"/>
<path fill-rule="evenodd" clip-rule="evenodd" fill="#FFFFFF" d="M115.387,112.251c4.872-15.236,10.841-25.092,17.71-32.26
	c5.107-5.343,7.741-7.04,4.743-1.146c1.322-1.071,3.223-2.474,4.722-3.25c8.293-3.897,7.693-0.626,1.986,2.902
	c15.61-5.584,15.06,1.521-1.435,5.064c13.485,0.251,27.849,8.844,31.971,27.116c0.573,2.526-0.102,2.28,2.495,2.746
	c5.573,0.99,10.841,0.937,15.975-0.701c-0.562,3.79-5.557,6.237-13.352,7.87c-2.896,0.589-3.469,0.439,0,1.21
	c4.245,0.963,9.016,1.21,14.053,0.974c-3.924,4.508-10.183,6.82-17.924,6.922c-4.823,17.661-15.899,30.322-29.883,38.272
	c-32.871,18.662-80.715,15.938-104.704-17.955c15.744,12.351,39.064,15.075,56.383-2.137c-11.339,0-14.283-8.49-5.294-13.084
	c-8.518-0.091-13.925-2.783-17.11-7.671c-1.188-1.847-1.21-1.986,0.75-3.405c2.173-1.563,5.117-2.265,8.169-2.5
	c-8.817-2.511-14.203-7.131-16.071-13.304c-0.626-2.045-0.712-1.949,1.36-2.468c2.034-0.53,4.657-0.803,6.991-0.916
	c-6.917-4.208-11.055-9.326-12.115-15.033c-0.995-5.359,0.027-3.983,4.048-2.452C86.837,93.916,104.76,101.298,115.387,112.251
	L115.387,112.251z"/>
</svg>
